<svg width="120" height="100" viewBox="0 0 120 100" fill="none" xmlns="http://www.w3.org/2000/svg">
<g clip-path="url(#clip0_8_7)">
<path d="M98.7282 33.032C98.5922 32.88 93.6922 33.092 89.4282 37.72C85.1642 42.344 85.8202 47.648 85.9162 47.784C86.0122 47.92 91.9962 48.132 95.8162 42.752C99.6362 37.372 98.8642 33.188 98.7282 33.032ZM111.984 79.964C111.792 79.58 102.684 75.028 103.532 66.276C104.38 57.524 110.232 55.12 110.324 54.86C110.416 54.6 107.936 51.7 105.308 50.232C103.378 49.198 101.243 48.6051 99.0562 48.496C98.6242 48.484 97.1242 48.116 94.0402 48.96C92.0082 49.516 87.4282 51.316 86.1682 51.388C84.9042 51.46 81.1442 49.3 77.1002 48.728C74.5122 48.228 71.7682 49.252 69.8042 50.04C67.8442 50.824 64.1162 53.056 61.5082 58.988C58.9002 64.916 60.2642 74.308 61.2402 77.228C62.2162 80.148 63.7402 84.924 66.3322 88.412C68.6362 92.348 71.6922 95.08 72.9682 96.008C74.2442 96.936 77.8442 97.552 80.3402 96.276C82.3482 95.044 85.9722 94.336 87.4042 94.388C88.8322 94.44 91.6482 95.004 94.5322 96.544C96.8162 97.332 98.9762 97.004 101.14 96.124C103.304 95.24 106.436 91.888 110.092 85.092C111.479 81.932 112.11 80.2227 111.984 79.964Z" fill="black"/>
<path d="M98.7282 33.032C98.5922 32.88 93.6922 33.092 89.4282 37.72C85.1642 42.344 85.8202 47.648 85.9162 47.784C86.0122 47.92 91.9962 48.132 95.8162 42.752C99.6362 37.372 98.8642 33.188 98.7282 33.032ZM111.984 79.964C111.792 79.58 102.684 75.028 103.532 66.276C104.38 57.524 110.232 55.12 110.324 54.86C110.416 54.6 107.936 51.7 105.308 50.232C103.378 49.198 101.243 48.6051 99.0562 48.496C98.6242 48.484 97.1242 48.116 94.0402 48.96C92.0082 49.516 87.4282 51.316 86.1682 51.388C84.9042 51.46 81.1442 49.3 77.1002 48.728C74.5122 48.228 71.7682 49.252 69.8042 50.04C67.8442 50.824 64.1162 53.056 61.5082 58.988C58.9002 64.916 60.2642 74.308 61.2402 77.228C62.2162 80.148 63.7402 84.924 66.3322 88.412C68.6362 92.348 71.6922 95.08 72.9682 96.008C74.2442 96.936 77.8442 97.552 80.3402 96.276C82.3482 95.044 85.9722 94.336 87.4042 94.388C88.8322 94.44 91.6482 95.004 94.5322 96.544C96.8162 97.332 98.9762 97.004 101.14 96.124C103.304 95.24 106.436 91.888 110.092 85.092C111.479 81.932 112.11 80.2227 111.984 79.964Z" fill="white"/>
</g>
<path d="M60.888 40.4972C65.036 38.0572 65.036 31.9492 60.888 29.5052L50.112 23.1612L37.28 35.0012L50.108 46.8412L60.888 40.4972ZM46.508 48.9612L34.332 37.7212L8.12 61.9212C8.924 66.0372 13.56 68.3612 17.332 66.1412L46.508 48.9612ZM8 56.5852V13.4132L31.384 35.0012L8 56.5852ZM8.12 8.08115L34.332 32.2812L46.508 21.0412L17.332 3.86115C13.56 1.63715 8.924 3.96115 8.12 8.08115Z" fill="white"/>
<defs>
<clipPath id="clip0_8_7">
<rect width="64" height="64" fill="white" transform="translate(54 33)"/>
</clipPath>
</defs>
</svg>
