<svg width="64" height="64" viewBox="0 0 64 64" fill="none" xmlns="http://www.w3.org/2000/svg">
<g clip-path="url(#clip0_8_7)">
<path d="M49.9661 28.015C49.9024 27.9438 47.6055 28.0431 45.6067 30.2125C43.608 32.38 43.9155 34.8663 43.9605 34.93C44.0055 34.9938 46.8105 35.0931 48.6011 32.5713C50.3917 30.0494 50.0299 28.0881 49.9661 28.015ZM56.1799 50.0144C56.0899 49.8344 51.8205 47.7006 52.218 43.5981C52.6155 39.4956 55.3586 38.3688 55.4017 38.2469C55.4449 38.125 54.2824 36.7656 53.0505 36.0775C52.1458 35.5928 51.1449 35.3149 50.1199 35.2638C49.9174 35.2581 49.2142 35.0856 47.7686 35.4813C46.8161 35.7419 44.6692 36.5856 44.0786 36.6194C43.4861 36.6531 41.7236 35.6406 39.828 35.3725C38.6149 35.1381 37.3286 35.6181 36.408 35.9875C35.4892 36.355 33.7417 37.4013 32.5192 40.1819C31.2967 42.9606 31.9361 47.3631 32.3936 48.7319C32.8511 50.1006 33.5655 52.3394 34.7805 53.9744C35.8605 55.8194 37.293 57.1 37.8911 57.535C38.4892 57.97 40.1767 58.2588 41.3467 57.6606C42.288 57.0831 43.9867 56.7513 44.658 56.7756C45.3274 56.8 46.6474 57.0644 47.9992 57.7863C49.0699 58.1556 50.0824 58.0019 51.0967 57.5894C52.1111 57.175 53.5792 55.6038 55.293 52.4181C55.943 50.9369 56.2386 50.1356 56.1799 50.0144Z" fill="black"/>
<path d="M49.9661 28.015C49.9024 27.9438 47.6055 28.0431 45.6067 30.2125C43.608 32.38 43.9155 34.8663 43.9605 34.93C44.0055 34.9938 46.8105 35.0931 48.6011 32.5713C50.3917 30.0494 50.0299 28.0881 49.9661 28.015ZM56.1799 50.0144C56.0899 49.8344 51.8205 47.7006 52.218 43.5981C52.6155 39.4956 55.3586 38.3688 55.4017 38.2469C55.4449 38.125 54.2824 36.7656 53.0505 36.0775C52.1458 35.5928 51.1449 35.3149 50.1199 35.2638C49.9174 35.2581 49.2142 35.0856 47.7686 35.4813C46.8161 35.7419 44.6692 36.5856 44.0786 36.6194C43.4861 36.6531 41.7236 35.6406 39.828 35.3725C38.6149 35.1381 37.3286 35.6181 36.408 35.9875C35.4892 36.355 33.7417 37.4013 32.5192 40.1819C31.2967 42.9606 31.9361 47.3631 32.3936 48.7319C32.8511 50.1006 33.5655 52.3394 34.7805 53.9744C35.8605 55.8194 37.293 57.1 37.8911 57.535C38.4892 57.97 40.1767 58.2588 41.3467 57.6606C42.288 57.0831 43.9867 56.7513 44.658 56.7756C45.3274 56.8 46.6474 57.0644 47.9992 57.7863C49.0699 58.1556 50.0824 58.0019 51.0967 57.5894C52.1111 57.175 53.5792 55.6038 55.293 52.4181C55.943 50.9369 56.2386 50.1356 56.1799 50.0144Z" fill="white"/>
</g>
<g clip-path="url(#clip1_8_7)">
<path d="M33.6663 25.5763C35.6106 24.4326 35.6106 21.5694 33.6663 20.4238L28.615 17.4501L22.6 23.0001L28.6131 28.5501L33.6663 25.5763ZM26.9256 29.5438L21.2181 24.2751L8.93125 35.6188C9.30812 37.5482 11.4812 38.6376 13.2494 37.5969L26.9256 29.5438ZM8.875 33.1176V12.8807L19.8363 23.0001L8.875 33.1176ZM8.93125 10.3813L21.2181 21.7251L26.9256 16.4563L13.2494 8.40318C11.4812 7.36068 9.30812 8.45005 8.93125 10.3813Z" fill="white"/>
<rect x="28" y="35.3704" width="5" height="1" rx="0.5" transform="rotate(-42.3805 28 35.3704)" fill="white"/>
<rect x="31.4976" y="36.2397" width="5" height="1" rx="0.5" transform="rotate(-132.32 31.4976 36.2397)" fill="white"/>
</g>
<defs>
<clipPath id="clip0_8_7">
<rect width="30" height="30" fill="white" transform="translate(29 28)"/>
</clipPath>
<clipPath id="clip1_8_7">
<rect width="30" height="30" fill="white" transform="translate(7 8)"/>
</clipPath>
</defs>
</svg>
