<svg width="220" height="95" viewBox="0 0 220 95" fill="none" xmlns="http://www.w3.org/2000/svg">
<path d="M10.44 35.972C13.056 35.972 15.108 36.512 16.596 37.592C18.108 38.648 18.864 40.304 18.864 42.56C18.864 43.928 18.552 45.116 17.928 46.124C17.304 47.132 16.428 47.924 15.3 48.5C14.196 49.076 12.888 49.4 11.376 49.472L10.872 47.672C12.624 47.72 14.196 48.032 15.588 48.608C16.98 49.184 18.084 49.988 18.9 51.02C19.716 52.052 20.124 53.276 20.124 54.692C20.124 55.988 19.884 57.104 19.404 58.04C18.924 58.952 18.276 59.708 17.46 60.308C16.644 60.884 15.72 61.316 14.688 61.604C13.656 61.868 12.588 62 11.484 62H3.744V35.972H10.44ZM11.16 47.384C12.6 47.384 13.644 46.988 14.292 46.196C14.94 45.38 15.264 44.396 15.264 43.244C15.264 41.876 14.844 40.88 14.004 40.256C13.164 39.632 12.036 39.32 10.62 39.32H7.236V47.384H11.16ZM11.304 58.76C12.264 58.76 13.14 58.616 13.932 58.328C14.748 58.04 15.384 57.596 15.84 56.996C16.32 56.396 16.56 55.64 16.56 54.728C16.56 53.72 16.284 52.928 15.732 52.352C15.204 51.776 14.52 51.368 13.68 51.128C12.84 50.864 11.976 50.732 11.088 50.732H7.236V58.76H11.304ZM26.4299 69.164L36.2579 47.096H39.3539L29.7419 69.164H26.4299ZM30.1019 62.108L22.9379 47.096H26.7179L32.7299 60.416L30.1019 62.108ZM44.399 40.544H47.747V47.168H51.851V49.796H47.747V62H44.399V49.796H41.663V47.168H44.399V40.544ZM62.8085 62.36C61.1045 62.36 59.6405 62.024 58.4165 61.352C57.1925 60.656 56.2445 59.72 55.5725 58.544C54.9245 57.344 54.6005 55.976 54.6005 54.44C54.6005 52.976 54.9725 51.644 55.7165 50.444C56.4605 49.244 57.4565 48.284 58.7045 47.564C59.9525 46.844 61.3445 46.484 62.8805 46.484C64.8485 46.484 66.4805 47.06 67.7765 48.212C69.0725 49.364 69.9485 50.948 70.4045 52.964L58.1285 57.284L57.3365 55.304L67.4165 51.632L66.6965 52.1C66.4085 51.308 65.9285 50.624 65.2565 50.048C64.5845 49.448 63.7085 49.148 62.6285 49.148C61.7165 49.148 60.9005 49.376 60.1805 49.832C59.4605 50.264 58.8965 50.864 58.4885 51.632C58.0805 52.4 57.8765 53.276 57.8765 54.26C57.8765 55.292 58.0925 56.204 58.5245 56.996C58.9565 57.764 59.5445 58.376 60.2885 58.832C61.0565 59.264 61.9205 59.48 62.8805 59.48C63.5285 59.48 64.1525 59.36 64.7525 59.12C65.3765 58.88 65.9525 58.568 66.4805 58.184L68.0285 60.668C67.2845 61.172 66.4445 61.58 65.5085 61.892C64.5965 62.204 63.6965 62.36 62.8085 62.36Z" fill="white"/>
<path d="M148.992 78.368L149.208 81.248L149.088 80.864C149.344 80.256 149.712 79.744 150.192 79.328C150.688 78.896 151.2 78.568 151.728 78.344C152.272 78.104 152.744 77.984 153.144 77.984L153.024 80.192C152.272 80.144 151.608 80.288 151.032 80.624C150.472 80.96 150.024 81.408 149.688 81.968C149.368 82.528 149.208 83.128 149.208 83.768V88.304H147V78.368H148.992ZM160.21 88.544C159.074 88.544 158.098 88.32 157.282 87.872C156.466 87.408 155.834 86.784 155.386 86C154.954 85.2 154.738 84.288 154.738 83.264C154.738 82.288 154.986 81.4 155.482 80.6C155.978 79.8 156.642 79.16 157.474 78.68C158.306 78.2 159.234 77.96 160.258 77.96C161.57 77.96 162.658 78.344 163.522 79.112C164.386 79.88 164.97 80.936 165.274 82.28L157.09 85.16L156.562 83.84L163.282 81.392L162.802 81.704C162.61 81.176 162.29 80.72 161.842 80.336C161.394 79.936 160.81 79.736 160.09 79.736C159.482 79.736 158.938 79.888 158.458 80.192C157.978 80.48 157.602 80.88 157.33 81.392C157.058 81.904 156.922 82.488 156.922 83.144C156.922 83.832 157.066 84.44 157.354 84.968C157.642 85.48 158.034 85.888 158.53 86.192C159.042 86.48 159.618 86.624 160.258 86.624C160.69 86.624 161.106 86.544 161.506 86.384C161.922 86.224 162.306 86.016 162.658 85.76L163.69 87.416C163.194 87.752 162.634 88.024 162.01 88.232C161.402 88.44 160.802 88.544 160.21 88.544ZM172.198 88.544C171.27 88.544 170.422 88.344 169.654 87.944C168.902 87.544 168.302 86.96 167.854 86.192C167.422 85.408 167.206 84.456 167.206 83.336C167.206 82.232 167.438 81.28 167.902 80.48C168.366 79.664 168.982 79.04 169.75 78.608C170.534 78.176 171.39 77.96 172.318 77.96C173.246 77.96 174.03 78.176 174.67 78.608C175.31 79.024 175.798 79.52 176.134 80.096L175.99 80.48L176.206 78.368H178.27V88.304H176.038V85.712L176.278 86.288C176.214 86.448 176.07 86.656 175.846 86.912C175.638 87.152 175.35 87.4 174.982 87.656C174.63 87.912 174.222 88.128 173.758 88.304C173.294 88.464 172.774 88.544 172.198 88.544ZM172.798 86.696C173.358 86.696 173.862 86.592 174.31 86.384C174.758 86.176 175.126 85.888 175.414 85.52C175.718 85.136 175.926 84.68 176.038 84.152V82.208C175.91 81.728 175.686 81.312 175.366 80.96C175.046 80.592 174.662 80.312 174.214 80.12C173.766 79.912 173.27 79.808 172.726 79.808C172.134 79.808 171.59 79.952 171.094 80.24C170.598 80.528 170.198 80.928 169.894 81.44C169.606 81.952 169.462 82.552 169.462 83.24C169.462 83.88 169.614 84.464 169.918 84.992C170.222 85.52 170.63 85.936 171.142 86.24C171.654 86.544 172.206 86.696 172.798 86.696ZM183.093 74H185.325V78.416H188.061V80.168H185.325V88.304H183.093V80.168H181.269V78.416H183.093V74ZM189.894 83.24C189.894 82.248 190.126 81.352 190.59 80.552C191.07 79.752 191.726 79.12 192.558 78.656C193.39 78.192 194.334 77.96 195.39 77.96C196.478 77.96 197.43 78.192 198.246 78.656C199.062 79.12 199.694 79.752 200.142 80.552C200.59 81.352 200.814 82.248 200.814 83.24C200.814 84.232 200.59 85.136 200.142 85.952C199.694 86.752 199.054 87.384 198.222 87.848C197.406 88.312 196.454 88.544 195.366 88.544C194.31 88.544 193.366 88.328 192.534 87.896C191.718 87.448 191.07 86.832 190.59 86.048C190.126 85.248 189.894 84.312 189.894 83.24ZM192.126 83.264C192.126 83.904 192.27 84.488 192.558 85.016C192.846 85.528 193.23 85.936 193.71 86.24C194.206 86.544 194.75 86.696 195.342 86.696C195.966 86.696 196.518 86.544 196.998 86.24C197.494 85.936 197.878 85.528 198.15 85.016C198.422 84.488 198.558 83.904 198.558 83.264C198.558 82.624 198.422 82.048 198.15 81.536C197.878 81.008 197.494 80.592 196.998 80.288C196.518 79.968 195.966 79.808 195.342 79.808C194.734 79.808 194.182 79.968 193.686 80.288C193.206 80.608 192.822 81.032 192.534 81.56C192.262 82.072 192.126 82.64 192.126 83.264ZM205.828 78.368L206.044 81.248L205.924 80.864C206.18 80.256 206.548 79.744 207.028 79.328C207.524 78.896 208.036 78.568 208.564 78.344C209.108 78.104 209.58 77.984 209.98 77.984L209.86 80.192C209.108 80.144 208.444 80.288 207.868 80.624C207.308 80.96 206.86 81.408 206.524 81.968C206.204 82.528 206.044 83.128 206.044 83.768V88.304H203.836V78.368H205.828ZM215.643 88.496C214.939 88.496 214.251 88.376 213.579 88.136C212.923 87.88 212.379 87.504 211.947 87.008L212.883 85.712C213.299 86.112 213.723 86.416 214.155 86.624C214.603 86.816 215.043 86.912 215.475 86.912C215.795 86.912 216.091 86.872 216.363 86.792C216.635 86.712 216.851 86.584 217.011 86.408C217.187 86.216 217.275 85.96 217.275 85.64C217.275 85.288 217.155 85.008 216.915 84.8C216.691 84.592 216.395 84.424 216.027 84.296C215.675 84.168 215.299 84.048 214.899 83.936C214.083 83.664 213.459 83.288 213.027 82.808C212.595 82.328 212.379 81.744 212.379 81.056C212.379 80.528 212.507 80.04 212.763 79.592C213.035 79.128 213.427 78.752 213.939 78.464C214.467 78.176 215.115 78.032 215.883 78.032C216.571 78.032 217.187 78.12 217.731 78.296C218.275 78.456 218.787 78.728 219.267 79.112L218.379 80.504C218.091 80.2 217.747 79.976 217.347 79.832C216.947 79.688 216.587 79.608 216.267 79.592C215.995 79.576 215.731 79.616 215.475 79.712C215.235 79.808 215.035 79.944 214.875 80.12C214.715 80.296 214.635 80.504 214.635 80.744C214.635 81.08 214.747 81.352 214.971 81.56C215.195 81.768 215.483 81.936 215.835 82.064C216.203 82.176 216.563 82.296 216.915 82.424C217.411 82.568 217.851 82.76 218.235 83C218.619 83.24 218.923 83.536 219.147 83.888C219.387 84.24 219.507 84.68 219.507 85.208C219.507 85.8 219.363 86.352 219.075 86.864C218.803 87.36 218.379 87.76 217.803 88.064C217.243 88.352 216.523 88.496 215.643 88.496Z" fill="url(#paint0_linear_15_20)"/>
<path d="M144.728 86.656C143.192 87.68 141.101 88.832 138.456 90.112C135.811 91.392 132.696 92.4587 129.112 93.312C125.613 94.1653 121.773 94.592 117.592 94.592C110.424 94.5067 103.939 93.2267 98.136 90.752C92.4187 88.2773 87.5547 84.9067 83.544 80.64C79.5333 76.3733 76.4187 71.4667 74.2 65.92C72.0667 60.288 71 54.3147 71 48C71 41.088 72.1093 34.7307 74.328 28.928C76.632 23.04 79.832 17.9627 83.928 13.696C88.024 9.344 92.8453 5.97333 98.392 3.584C104.024 1.19467 110.168 0 116.824 0C122.371 0 127.405 0.768001 131.928 2.30399C136.451 3.75466 140.333 5.50399 143.576 7.55199L138.584 19.072C136.024 17.3653 132.909 15.744 129.24 14.208C125.656 12.672 121.645 11.904 117.208 11.904C112.685 11.904 108.419 12.8 104.408 14.592C100.397 16.384 96.856 18.9013 93.784 22.144C90.712 25.3867 88.28 29.184 86.488 33.536C84.7813 37.8027 83.928 42.4107 83.928 47.36C83.928 52.3947 84.696 57.088 86.232 61.44C87.8533 65.7067 90.1147 69.4187 93.016 72.576C96.0027 75.7333 99.5867 78.208 103.768 80C107.949 81.792 112.643 82.688 117.848 82.688C122.541 82.688 126.723 81.9627 130.392 80.512C134.061 79.0613 137.091 77.44 139.48 75.648L144.728 86.656Z" fill="url(#paint1_linear_15_20)"/>
<path d="M76.476 36.116H80.508L87.564 55.988L86.952 55.736L92.1 42.416L93.72 47.132L86.844 63.188L76.476 36.116ZM88.968 36.116H92.46L100.092 55.7L99.372 55.556L106.104 36.116H109.812L99.588 63.152L88.968 36.116ZM113.705 47.096H117.053V62H113.705V47.096ZM113.453 41.696C113.453 41.168 113.657 40.724 114.065 40.364C114.497 40.004 114.965 39.824 115.469 39.824C115.973 39.824 116.417 40.004 116.801 40.364C117.209 40.724 117.413 41.168 117.413 41.696C117.413 42.248 117.209 42.704 116.801 43.064C116.417 43.4 115.973 43.568 115.469 43.568C114.965 43.568 114.497 43.388 114.065 43.028C113.657 42.668 113.453 42.224 113.453 41.696ZM127.022 62.288C125.966 62.288 124.934 62.108 123.926 61.748C122.942 61.364 122.126 60.8 121.478 60.056L122.882 58.112C123.506 58.712 124.142 59.168 124.79 59.48C125.462 59.768 126.122 59.912 126.77 59.912C127.25 59.912 127.694 59.852 128.102 59.732C128.51 59.612 128.834 59.42 129.074 59.156C129.338 58.868 129.47 58.484 129.47 58.004C129.47 57.476 129.29 57.056 128.93 56.744C128.594 56.432 128.15 56.18 127.598 55.988C127.07 55.796 126.506 55.616 125.906 55.448C124.682 55.04 123.746 54.476 123.098 53.756C122.45 53.036 122.126 52.16 122.126 51.128C122.126 50.336 122.318 49.604 122.702 48.932C123.11 48.236 123.698 47.672 124.466 47.24C125.258 46.808 126.23 46.592 127.382 46.592C128.414 46.592 129.338 46.724 130.154 46.988C130.97 47.228 131.738 47.636 132.458 48.212L131.126 50.3C130.694 49.844 130.178 49.508 129.578 49.292C128.978 49.076 128.438 48.956 127.958 48.932C127.55 48.908 127.154 48.968 126.77 49.112C126.41 49.256 126.11 49.46 125.87 49.724C125.63 49.988 125.51 50.3 125.51 50.66C125.51 51.164 125.678 51.572 126.014 51.884C126.35 52.196 126.782 52.448 127.31 52.64C127.862 52.808 128.402 52.988 128.93 53.18C129.674 53.396 130.334 53.684 130.91 54.044C131.486 54.404 131.942 54.848 132.278 55.376C132.638 55.904 132.818 56.564 132.818 57.356C132.818 58.244 132.602 59.072 132.17 59.84C131.762 60.584 131.126 61.184 130.262 61.64C129.422 62.072 128.342 62.288 127.022 62.288ZM144.418 62.36C142.714 62.36 141.25 62.024 140.026 61.352C138.802 60.656 137.854 59.72 137.182 58.544C136.534 57.344 136.21 55.976 136.21 54.44C136.21 52.976 136.582 51.644 137.326 50.444C138.07 49.244 139.066 48.284 140.314 47.564C141.562 46.844 142.954 46.484 144.49 46.484C146.458 46.484 148.09 47.06 149.386 48.212C150.682 49.364 151.558 50.948 152.014 52.964L139.738 57.284L138.946 55.304L149.026 51.632L148.306 52.1C148.018 51.308 147.538 50.624 146.866 50.048C146.194 49.448 145.318 49.148 144.238 49.148C143.326 49.148 142.51 49.376 141.79 49.832C141.07 50.264 140.506 50.864 140.098 51.632C139.69 52.4 139.486 53.276 139.486 54.26C139.486 55.292 139.702 56.204 140.134 56.996C140.566 57.764 141.154 58.376 141.898 58.832C142.666 59.264 143.53 59.48 144.49 59.48C145.138 59.48 145.762 59.36 146.362 59.12C146.986 58.88 147.562 58.568 148.09 58.184L149.638 60.668C148.894 61.172 148.054 61.58 147.118 61.892C146.206 62.204 145.306 62.36 144.418 62.36Z" fill="white"/>
<defs>
<linearGradient id="paint0_linear_15_20" x1="147.056" y1="59.804" x2="219.056" y2="105.804" gradientUnits="userSpaceOnUse">
<stop stop-color="#6257FF"/>
<stop offset="1" stop-color="#EE49FD"/>
</linearGradient>
<linearGradient id="paint1_linear_15_20" x1="71.4482" y1="-0.432006" x2="144.448" y2="98.568" gradientUnits="userSpaceOnUse">
<stop stop-color="#6257FF"/>
<stop offset="1" stop-color="#EE49FD"/>
</linearGradient>
</defs>
</svg>
