<svg width="2209" height="1546" viewBox="0 0 2209 1546" fill="none" xmlns="http://www.w3.org/2000/svg">
<g clip-path="url(#clip0_1_1057)">
<path d="M212.106 817.675C178.971 596.992 104.942 577.756 48.0172 466.365C-3.80718 365.042 -45.6009 199.284 100.656 80.7809C327.843 -103.443 606.468 85.0652 606.468 85.0652C606.468 85.0652 1047.98 337.837 1125.14 350.69C1202.3 363.543 1390.91 492.071 1626.67 337.837C1862.43 183.603 2063.89 196.456 2128.19 312.131C2192.49 427.807 2046.75 761.979 2012.46 830.528C1978.16 899.076 2029.6 1113.29 2085.33 1198.97C2141.05 1284.66 2316.8 1550.28 1939.58 1541.72C1562.37 1533.15 430.72 1546 430.72 1546C430.72 1546 24.4841 1538.42 96.3695 1143.28C156.381 813.391 224.966 903.36 212.106 817.675Z" fill="#F8F8FF"/>
<path d="M357.5 787C404.72 787 443 748.72 443 701.5C443 654.28 404.72 616 357.5 616C310.28 616 272 654.28 272 701.5C272 748.72 310.28 787 357.5 787Z" fill="#BAC5F4"/>
<path d="M563.5 352C610.72 352 649 313.72 649 266.5C649 219.28 610.72 181 563.5 181C516.28 181 478 219.28 478 266.5C478 313.72 516.28 352 563.5 352Z" fill="#BAC5F4"/>
<path d="M214 864C246.033 864 272 838.256 272 806.5C272 774.744 246.033 749 214 749C181.967 749 156 774.744 156 806.5C156 838.256 181.967 864 214 864Z" fill="#BAC5F4"/>
<path d="M222.5 706C239.897 706 254 691.897 254 674.5C254 657.103 239.897 643 222.5 643C205.103 643 191 657.103 191 674.5C191 691.897 205.103 706 222.5 706Z" fill="#BAC5F4"/>
<path d="M2123.5 1366C2170.72 1366 2209 1327.72 2209 1280.5C2209 1233.28 2170.72 1195 2123.5 1195C2076.28 1195 2038 1233.28 2038 1280.5C2038 1327.72 2076.28 1366 2123.5 1366Z" fill="#BAC5F4"/>
<path d="M64.5 300C81.897 300 96 285.225 96 267C96 248.775 81.897 234 64.5 234C47.103 234 33 248.775 33 267C33 285.225 47.103 300 64.5 300Z" fill="#BAC5F4"/>
<path d="M833.5 300C874.645 300 908 266.869 908 226C908 185.131 874.645 152 833.5 152C792.355 152 759 185.131 759 226C759 266.869 792.355 300 833.5 300Z" fill="#E1E6FB"/>
<path d="M253.5 469C294.645 469 328 435.869 328 395C328 354.131 294.645 321 253.5 321C212.355 321 179 354.131 179 395C179 435.869 212.355 469 253.5 469Z" fill="#E1E6FB"/>
<path d="M167 1522C223.885 1522 270 1475.89 270 1419C270 1362.11 223.885 1316 167 1316C110.115 1316 64 1362.11 64 1419C64 1475.89 110.115 1522 167 1522Z" fill="#E1E6FB"/>
<path d="M1973.5 919C2004.15 919 2029 894.152 2029 863.5C2029 832.848 2004.15 808 1973.5 808C1942.85 808 1918 832.848 1918 863.5C1918 894.152 1942.85 919 1973.5 919Z" fill="#E1E6FB"/>
<path d="M1583 475C1644.86 475 1695 425.08 1695 363.5C1695 301.92 1644.86 252 1583 252C1521.14 252 1471 301.92 1471 363.5C1471 425.08 1521.14 475 1583 475Z" fill="#E1E6FB"/>
<path d="M561.5 119C591.047 119 615 95.0472 615 65.5C615 35.9528 591.047 12 561.5 12C531.953 12 508 35.9528 508 65.5C508 95.0472 531.953 119 561.5 119Z" fill="#E1E6FB"/>
<path d="M390 1147C419.271 1147 443 1123.05 443 1093.5C443 1063.95 419.271 1040 390 1040C360.729 1040 337 1063.95 337 1093.5C337 1123.05 360.729 1147 390 1147Z" fill="#E1E6FB"/>
<path d="M2116.5 564C2146.05 564 2170 540.271 2170 511C2170 481.729 2146.05 458 2116.5 458C2086.95 458 2063 481.729 2063 511C2063 540.271 2086.95 564 2116.5 564Z" fill="#BAC5F4"/>
<path d="M2032 1477C2064.03 1477 2090 1451.03 2090 1419C2090 1386.97 2064.03 1361 2032 1361C1999.97 1361 1974 1386.97 1974 1419C1974 1451.03 1999.97 1477 2032 1477Z" fill="#BAC5F4"/>
<path d="M2160 1482C2177.67 1482 2192 1467.45 2192 1449.5C2192 1431.55 2177.67 1417 2160 1417C2142.33 1417 2128 1431.55 2128 1449.5C2128 1467.45 2142.33 1482 2160 1482Z" fill="#BAC5F4"/>
<path d="M1326.65 771H1526.16V483H1324L1326.65 771Z" fill="#BAC5F4"/>
<path d="M1511.51 496.339H1337.42V579.875H1511.51V496.339Z" fill="#B0C0F4"/>
<path d="M1512.13 678.866H1338.04V762.402H1512.13V678.866Z" fill="#B0C0F4"/>
<path d="M1512.13 588.385H1338.04V671.921H1512.13V588.385Z" fill="#B0C0F4"/>
<path d="M1507.13 592.031H1342.15V667.057H1507.13V592.031Z" fill="#BAC5F4"/>
<path d="M1363.38 506.365H1347V576.603H1363.38V506.365Z" fill="#E1E6FB"/>
<path d="M1384.99 506.365H1368.61V576.603H1384.99V506.365Z" fill="#E1E6FB"/>
<path d="M1388.67 689.123H1372.29V759.361H1388.67V689.123Z" fill="#E1E6FB"/>
<path d="M1394.5 746.751L1394.4 758.797L1464.63 759.398L1464.74 747.351L1394.5 746.751Z" fill="#E1E6FB"/>
<path d="M1498.44 685.913L1468.33 755.111L1479.38 759.917L1509.48 690.719L1498.44 685.913Z" fill="#E1E6FB"/>
<path d="M1395.27 737.035L1395.19 745.68L1465.42 746.383L1465.51 737.737L1395.27 737.035Z" fill="#E1E6FB"/>
<path d="M1380.48 755.832C1382.51 755.832 1384.16 754.184 1384.16 752.152C1384.16 750.119 1382.51 748.472 1380.48 748.472C1378.45 748.472 1376.8 750.119 1376.8 752.152C1376.8 754.184 1378.45 755.832 1380.48 755.832Z" fill="#B0C0F4"/>
<path d="M1401.33 756.036C1402.88 756.036 1404.14 754.781 1404.14 753.233C1404.14 751.685 1402.88 750.431 1401.33 750.431C1399.79 750.431 1398.53 751.685 1398.53 753.233C1398.53 754.781 1399.79 756.036 1401.33 756.036Z" fill="#B0C0F4"/>
<path d="M1476.16 754.954C1477.7 754.954 1478.96 753.699 1478.96 752.151C1478.96 750.603 1477.7 749.349 1476.16 749.349C1474.61 749.349 1473.35 750.603 1473.35 752.151C1473.35 753.699 1474.61 754.954 1476.16 754.954Z" fill="#B0C0F4"/>
<path d="M1434.45 558.126L1434.21 574.503L1504.45 575.533L1504.69 559.155L1434.45 558.126Z" fill="#E1E6FB"/>
<path d="M1434.35 546.993L1434.21 556.366L1504.44 557.395L1504.58 548.023L1434.35 546.993Z" fill="#E1E6FB"/>
<path d="M1376.8 568.876C1378.84 568.876 1380.48 567.229 1380.48 565.197C1380.48 563.164 1378.84 561.517 1376.8 561.517C1374.77 561.517 1373.12 563.164 1373.12 565.197C1373.12 567.229 1374.77 568.876 1376.8 568.876Z" fill="#B0C0F4"/>
<path d="M1495.54 571.182C1497.57 571.182 1499.22 569.535 1499.22 567.502C1499.22 565.47 1497.57 563.823 1495.54 563.823C1493.51 563.823 1491.86 565.47 1491.86 567.502C1491.86 569.535 1493.51 571.182 1495.54 571.182Z" fill="#B0C0F4"/>
<path d="M1495.54 555.143C1496.81 555.143 1497.84 554.114 1497.84 552.844C1497.84 551.574 1496.81 550.545 1495.54 550.545C1494.27 550.545 1493.24 551.574 1493.24 552.844C1493.24 554.114 1494.27 555.143 1495.54 555.143Z" fill="#B0C0F4"/>
<path d="M1355.19 568.876C1357.23 568.876 1358.87 567.229 1358.87 565.197C1358.87 563.164 1357.23 561.517 1355.19 561.517C1353.16 561.517 1351.51 563.164 1351.51 565.197C1351.51 567.229 1353.16 568.876 1355.19 568.876Z" fill="#B0C0F4"/>
<path d="M1424.47 591.35H1420.39V668.459H1424.47V591.35Z" fill="#B0C0F4"/>
<path d="M1408.64 635.638C1410.32 635.638 1411.69 634.274 1411.69 632.591C1411.69 630.908 1410.32 629.544 1408.64 629.544C1406.96 629.544 1405.59 630.908 1405.59 632.591C1405.59 634.274 1406.96 635.638 1408.64 635.638Z" fill="#B0C0F4"/>
<path d="M1433.52 635.638C1435.2 635.638 1436.57 634.274 1436.57 632.591C1436.57 630.908 1435.2 629.544 1433.52 629.544C1431.84 629.544 1430.47 630.908 1430.47 632.591C1430.47 634.274 1431.84 635.638 1433.52 635.638Z" fill="#B0C0F4"/>
<path d="M840.751 1110.16C840.751 1110.16 736.051 1027.87 718.356 947.155C700.661 866.442 738.996 810.505 795.027 801.703C851.057 792.901 885.003 766.386 1081.1 832.565C1277.19 898.744 1502.84 781.138 1502.84 781.138C1502.84 781.138 1687.24 696.621 1778.22 717.241C1881.83 740.686 1903.86 803.17 1875.86 914.854C1847.86 1026.54 1752.46 1111 1752.46 1111L840.751 1110.16Z" fill="#BAC5F4"/>
<path d="M793.776 1103C793.776 1103 777.433 1103 774.709 1119.16C771.985 1135.32 777.433 1186.48 785.604 1202.64C793.776 1218.8 832.103 1217.99 832.103 1217.99L1766.23 1216.11C1766.23 1216.11 1797.26 1216.43 1804.37 1191.87C1810.06 1172.13 1818.37 1152.44 1818.97 1138.82C1819.32 1131.07 1816.74 1123.47 1811.74 1117.5C1806.73 1111.52 1799.66 1107.6 1791.89 1106.5C1781.75 1105.27 1771.55 1104.6 1761.33 1104.51C1690.48 1104.48 793.776 1103 793.776 1103Z" fill="#BAC5F4"/>
<path d="M750 1354L812.829 1218H862L796.439 1354H750Z" fill="white"/>
<path d="M1713 1218L1770.75 1358L1812 1355.25L1757 1218H1713Z" fill="white"/>
<path d="M857.573 1103C857.573 1103 771.558 1036.59 767.531 1008.96C762.279 973.157 794.742 919.657 920.513 943.344C1046.28 967.031 1268.06 1031.12 1388.25 998.314C1508.44 965.506 1659.74 828.339 1670.62 821.097C1681.5 813.855 1810.11 750.472 1839.33 847.044C1868.55 943.616 1751.06 1101.97 1751.06 1101.97L857.573 1103Z" fill="#B0C0F4"/>
<g clip-path="url(#clip1_1_1057)">
<path d="M429.19 1371.65C415.641 1361.91 413.924 1341.97 413.924 1341.97L386.966 1330.44C386.966 1330.44 378.753 1347.46 374.593 1356.88C369.071 1369.25 369.458 1375.89 378.985 1378.53C391.498 1381.95 439.769 1403.72 449.188 1401.92C461.453 1399.6 441.872 1380.82 429.19 1371.68" fill="#4B44BE"/>
<path d="M694.737 1358.95C676.749 1357.71 663.68 1345.42 663.68 1345.42L632.02 1346.05C632.02 1346.05 634.309 1364.74 635.438 1374.95C636.984 1388.48 640.836 1393.89 651.183 1391.13C664.793 1387.49 721.912 1380.79 729.815 1374.31C740.1 1365.9 711.58 1360.11 694.737 1358.95Z" fill="#4B44BE"/>
<path d="M385.62 1330.13L454.106 1132.2L482.627 893.532H584.877L652.296 1122.33L671.227 1351.11L632.591 1350.64L597.451 1126.26L548.963 1036.2L528.424 1135.03L417.079 1351.11L385.62 1330.13Z" fill="url(#paint0_linear_1_1057)"/>
<path opacity="0.1" d="M385.589 1330.15L454.091 1132.15L481.606 901.793C481.606 901.793 549.319 894.894 523.242 936.659C480.926 1004.49 529.197 1081.54 505.641 1118.55C482.086 1155.57 493.268 1168.69 477.801 1193.5C464.052 1215.57 450.333 1216.33 433.551 1271.29C425.89 1297.41 420.361 1324.1 417.018 1351.11L385.589 1330.15Z" fill="black"/>
<path d="M448.709 951.741C448.709 951.741 435.902 972.345 440.326 984.132C444.749 995.919 448.801 1000.34 456.906 992.237C465.01 984.132 474.677 960.032 474.677 960.032L448.709 951.741Z" fill="url(#paint1_linear_1_1057)"/>
<path d="M615.037 919.953C615.037 919.953 626.235 941.47 638.624 943.682C651.013 945.894 656.89 944.656 654.09 933.55C651.291 922.443 635.438 901.839 635.438 901.839L615.037 919.953Z" fill="url(#paint2_linear_1_1057)"/>
<path d="M531.579 700.268C531.579 700.268 524.016 664.056 539.436 656.74C560.27 646.886 561.09 619.151 556.45 601.842C552.521 587.007 559.11 582.985 559.11 582.985C559.11 582.985 513.267 598.222 512.524 607.735C511.782 617.248 489.897 629.747 489.897 639.91C489.897 650.073 486.71 689.657 486.71 689.657L531.579 700.268Z" fill="url(#paint3_linear_1_1057)"/>
<path d="M478.08 931.523L586.223 937.927L586.78 900.014L584.877 893.548C584.877 893.548 608.959 924.222 615.037 919.953C624.673 913.178 643.65 912.219 635.407 901.839C633.628 899.596 570.772 809.894 570.586 807.063C568.297 774.146 566.951 774.347 566.951 763.674C566.951 746.102 553.433 726.039 540.349 707.91C526.135 688.203 520.026 689.688 510.003 688.667C499.022 687.553 489.061 687.259 486.942 687.12C486.942 687.12 458.731 736.001 452.622 825.208C446.435 914.926 448.709 951.725 448.709 951.725L469.666 960.016H474.677L478.08 931.523Z" fill="url(#paint4_linear_1_1057)"/>
<path opacity="0.1" d="M478.064 931.276C478.064 931.276 493.717 819.902 496.624 792.26C499.532 764.617 522.748 766.041 529.429 802.237C536.111 838.433 520.149 849.896 533.466 866.091C546.783 882.287 550.866 894.693 544.648 903.216C536.436 914.523 551.871 935.7 551.871 935.7L478.064 931.276Z" fill="black"/>
<path opacity="0.1" d="M571.993 825.285L584.877 893.61C584.877 893.61 582.542 892.604 578.427 879.58C574.313 866.555 572.457 865.658 571.993 850.282C571.529 834.907 571.993 825.285 571.993 825.285Z" fill="black"/>
<path opacity="0.1" d="M530.125 676.663C530.125 676.663 519.809 658.828 515.818 656.276C513.885 655.023 522.716 662.463 537.24 658.58C537.24 658.58 530.373 661.55 530.125 676.663Z" fill="black"/>
<path d="M490.283 641.379C490.283 641.379 503.476 642.926 503.476 638.533C503.476 634.14 502.997 621.115 506.415 618.424C509.833 615.732 516.19 618.424 519.608 618.424C523.026 618.424 546.984 604.27 550.402 597.742C553.82 591.215 574.917 563.031 549.134 566.805C540.132 568.136 535.77 569.899 521.479 564.872C510.653 561.144 507.002 563.449 500.553 567.517C484.421 577.695 486.741 550.331 470.733 588.446C460.989 611.649 490.283 641.379 490.283 641.379Z" fill="url(#paint5_linear_1_1057)"/>
</g>
<g clip-path="url(#clip2_1_1057)">
<mask id="mask0_1_1057" style="mask-type:luminance" maskUnits="userSpaceOnUse" x="454" y="397" width="2035" height="1151">
<path d="M2488.38 397.806H454.582V1547.32H2488.38V397.806Z" fill="white"/>
</mask>
<g mask="url(#mask0_1_1057)">
<mask id="mask1_1_1057" style="mask-type:luminance" maskUnits="userSpaceOnUse" x="454" y="397" width="2035" height="1151">
<path d="M2488.38 397.806H454.582V1547.32H2488.38V397.806Z" fill="white"/>
</mask>
<g mask="url(#mask1_1_1057)">
<path d="M1581.42 1262.95L1559.48 1263.14C1559.48 1263.14 1549.97 1280.43 1545.24 1289.67C1544.95 1290.27 1544.09 1291.75 1543.5 1292.82C1542.77 1294.44 1542.22 1296.13 1541.86 1297.86C1540.13 1306.91 1541.22 1315.17 1547.21 1320.93C1553.77 1327.24 1558.69 1332.78 1568.92 1326.27C1579.16 1319.76 1581.83 1314.74 1582.04 1299.17C1582.25 1283.59 1581.5 1262.91 1581.5 1262.91" fill="#4B44BE"/>
<path d="M1469.69 1264.08L1449.67 1273.06C1449.67 1273.06 1447.82 1292.74 1447.18 1303.1C1447.18 1303.78 1446.95 1305.48 1446.83 1306.7C1446.79 1308.47 1446.95 1310.25 1447.31 1311.99C1449.31 1320.97 1453.61 1328.1 1461.38 1330.97C1469.91 1334.1 1476.63 1337.2 1483.4 1327.13C1490.17 1317.06 1490.62 1311.33 1484.6 1297.02C1478.58 1282.72 1469.69 1264.07 1469.69 1264.07" fill="#4B44BE"/>
</g>
<path d="M1474.53 778.265L1537.37 766.154C1537.37 766.154 1542.62 739.789 1541.04 735.109C1539.47 730.43 1537.99 720.131 1529.09 716.984C1520.18 713.836 1508.21 688.658 1478.35 708.662C1448.49 728.666 1464.59 752.494 1464.59 752.494L1474.53 778.265Z" fill="url(#paint6_linear_1_1057)"/>
<path d="M1518.91 725.453C1518.91 725.453 1487.6 737.597 1480.48 740.58C1473.37 743.562 1469.51 752.197 1469.51 752.197C1469.51 752.197 1466 750.104 1466 756.069C1466 762.034 1468.92 775.464 1471.04 778.891C1474.69 784.686 1478.02 790.682 1481.01 796.852C1483.89 802.998 1483.25 812.259 1482.57 815.67C1481.25 822.096 1451.92 867.097 1451.92 867.097L1462.79 879.835L1474.96 890.628L1560.49 884.037C1560.49 884.037 1530.71 825.441 1526.06 815.554C1523.96 811.122 1526.19 800.362 1527.42 794.875C1528.53 789.849 1530.98 783.538 1533.35 781.692C1535.73 779.847 1539.91 771.558 1539.91 767.966C1539.91 764.374 1540.6 753.021 1537.53 756.036C1536.71 756.844 1532.62 750.417 1531.45 745.045C1529.45 737.34 1525.05 730.477 1518.91 725.453Z" fill="url(#paint7_linear_1_1057)"/>
<path d="M1394.26 1048.14C1394.26 1048.14 1368.35 1071.51 1368.35 1081.38C1368.35 1091.25 1372.81 1117.3 1381.3 1132.57C1389.8 1147.85 1441.98 1263.97 1448.26 1272.92C1449.34 1274.47 1471.66 1268.24 1471.66 1268.24C1471.66 1268.24 1461.31 1220.6 1459.52 1209.82C1457.74 1199.05 1431.89 1135.28 1431.89 1128.98C1431.89 1122.69 1436.35 1113.71 1450.67 1111.02C1464.99 1108.33 1495.36 1104.73 1506.08 1108.32C1516.81 1111.91 1563.08 1111.45 1571.28 1121.8C1576.48 1128.47 1571.28 1136.05 1565.92 1161.34C1560.56 1186.64 1564.13 1221.57 1559.67 1232.36C1555.21 1243.16 1555.51 1266.39 1557.71 1266.54C1563.69 1266.92 1579.89 1268.3 1581.58 1267.1C1584.55 1264.97 1601.7 1226.48 1604.66 1219.94C1609.31 1209.66 1624.02 1153.32 1625.81 1138.95C1627.6 1124.58 1636.53 1098.53 1634.75 1091.35C1632.96 1084.16 1593.64 1040.15 1564.13 1033.85C1534.63 1027.56 1443.45 1020.39 1432.73 1027.58C1422 1034.76 1394.26 1048.14 1394.26 1048.14Z" fill="url(#paint8_linear_1_1057)"/>
<path opacity="0.1" d="M1468.99 1255.86C1468.99 1255.86 1460.87 1215.56 1458.56 1205.95C1455.92 1194.99 1434.93 1145.56 1431.81 1128.98C1428.79 1113.01 1419.76 1134.8 1422.45 1150.07C1425.14 1165.35 1440.32 1193.18 1441.21 1206.66C1442.09 1220.14 1468.99 1255.86 1468.99 1255.86Z" fill="black"/>
<mask id="mask2_1_1057" style="mask-type:luminance" maskUnits="userSpaceOnUse" x="1366" y="820" width="283" height="208">
<path d="M1551.03 820.58C1537.91 822.014 1532.21 823.332 1530.16 823.975C1527.89 828.301 1525.35 832.478 1522.56 836.482C1515.76 845.33 1512.51 856.552 1508.26 856.881C1502.72 857.31 1489.91 837.454 1483.32 832.725C1479.06 829.66 1478.61 828.358 1476.25 827.303L1438.96 829.05C1435.86 829.335 1432.86 830.311 1430.18 831.907C1427.5 833.503 1425.2 835.68 1423.46 838.278C1406.36 864.049 1368.04 940.441 1366.85 959.325C1366 973.1 1397.06 994.225 1405.77 996.334C1409.31 997.191 1415.51 963.279 1417.58 960.247L1404.56 956.194C1408.96 946.484 1414.08 937.12 1419.87 928.181C1421.51 925.743 1436.52 902.426 1438.26 894.55C1439.14 902.244 1439.51 909.99 1439.35 917.734C1438.98 927.16 1441.22 937.195 1441.22 944.181C1441.22 951.168 1446.03 973.479 1440.94 986.052C1435.86 998.625 1428.43 1027.72 1428.43 1027.72L1556.79 1027.03C1556.79 1027.03 1562.67 979.247 1564.53 960.215C1564.06 954.377 1563.93 948.518 1564.13 942.666C1564.63 918.987 1564.79 892.474 1563.77 888.288C1562.13 881.598 1600.41 934.113 1608.98 948.482C1612.54 954.447 1563.72 964.96 1559.69 969.607C1555.66 974.254 1563.81 987.403 1563.81 987.403C1563.81 987.403 1649 976.989 1648.49 963.889C1647.98 950.789 1602.84 851.378 1583.91 834.059C1572.15 823.283 1575.19 826.562 1568 823.398C1563.89 821.602 1564.43 821.47 1556.13 820.828" fill="white"/>
</mask>
<g mask="url(#mask2_1_1057)">
<path d="M1649 815.258H1366V1027.66H1649V815.258Z" fill="url(#paint9_linear_1_1057)"/>
</g>
<path opacity="0.07" d="M1482.19 825.936C1480.68 823.942 1476.32 826.99 1480.25 820.992C1486.81 810.957 1480.99 795.6 1480.99 795.6C1480.99 795.6 1484.27 802.586 1495.75 801.647C1507.23 800.708 1509.18 797.314 1496.54 810.743C1483.89 824.173 1480.24 823.761 1482.16 826.002" fill="black"/>
<mask id="mask3_1_1057" style="mask-type:luminance" maskUnits="userSpaceOnUse" x="454" y="397" width="2035" height="1151">
<path d="M2488.38 397.806H454.582V1547.32H2488.38V397.806Z" fill="white"/>
</mask>
<g mask="url(#mask3_1_1057)">
<g opacity="0.07">
<mask id="mask4_1_1057" style="mask-type:luminance" maskUnits="userSpaceOnUse" x="1381" y="1056" width="223" height="68">
<path d="M1603.54 1056.81H1381.07V1123.23H1603.54V1056.81Z" fill="white"/>
</mask>
<g mask="url(#mask4_1_1057)">
<path d="M1406.33 1057.29L1586.04 1054.47C1586.04 1054.47 1548.33 1074.08 1553.88 1084.51C1561.18 1098.25 1546.54 1113.64 1525.91 1111.1C1508.46 1108.96 1504.85 1105.37 1494.03 1106.29C1465.97 1108.68 1446.68 1107.03 1443.9 1102.75C1420.76 1067.04 1406.38 1057.29 1406.38 1057.29" fill="black"/>
</g>
</g>
<g opacity="0.07">
<mask id="mask5_1_1057" style="mask-type:luminance" maskUnits="userSpaceOnUse" x="1436" y="838" width="43" height="113">
<path d="M1478.76 838.904H1436.44V950.476H1478.76V838.904Z" fill="white"/>
</mask>
<g mask="url(#mask5_1_1057)">
<path d="M1448.62 889.541C1451.7 895.11 1454.67 898.208 1452.85 903.02C1449.26 912.511 1448.42 923.749 1459.57 932.762C1467.1 938.843 1465.76 948.499 1471.48 948.581C1475.91 951.201 1462.92 950.427 1462.92 950.427H1449.93L1441.73 949.965C1441.83 948.136 1439.26 923.914 1439.37 920.602C1439.78 908.935 1440.01 902.097 1439.08 896.989C1437.44 888.354 1437.91 891.6 1441.62 885.553C1442.98 883.361 1447.09 887.547 1448.67 889.557" fill="black"/>
</g>
</g>
</g>
<mask id="mask6_1_1057" style="mask-type:luminance" maskUnits="userSpaceOnUse" x="454" y="397" width="2035" height="1151">
<path d="M2488.38 397.806H454.582V1547.32H2488.38V397.806Z" fill="white"/>
</mask>
<g mask="url(#mask6_1_1057)">
<path d="M1400.59 958.962C1400.59 958.962 1400.46 951.102 1408.16 950.723C1415.87 950.344 1579.7 950.591 1579.7 950.591C1579.7 950.591 1586.9 951.448 1587.14 957.347C1587.39 963.246 1587.39 1050.15 1587.39 1050.15C1587.41 1051.07 1587.24 1051.98 1586.9 1052.84C1586.55 1053.69 1586.04 1054.46 1585.38 1055.1C1584.73 1055.75 1583.95 1056.25 1583.1 1056.58C1582.24 1056.91 1581.33 1057.06 1580.42 1057.02C1573.33 1057.15 1406.33 1057.27 1406.33 1057.27C1406.33 1057.27 1400.1 1055.62 1400.21 1049.41C1400.32 1043.2 1400.59 958.946 1400.59 958.946" fill="white"/>
</g>
<mask id="mask7_1_1057" style="mask-type:luminance" maskUnits="userSpaceOnUse" x="1487" y="996" width="15" height="16">
<path d="M1487.39 1003.91C1487.39 1005.32 1487.8 1006.7 1488.58 1007.87C1489.36 1009.04 1490.47 1009.95 1491.76 1010.49C1493.06 1011.03 1494.48 1011.17 1495.86 1010.89C1497.23 1010.62 1498.5 1009.94 1499.49 1008.94C1500.48 1007.94 1501.15 1006.67 1501.42 1005.29C1501.69 1003.91 1501.55 1002.48 1501.01 1001.18C1500.47 999.878 1499.56 998.767 1498.4 997.987C1497.23 997.207 1495.86 996.792 1494.45 996.795C1493.53 996.795 1492.6 996.98 1491.75 997.338C1490.89 997.696 1490.11 998.22 1489.45 998.881C1488.79 999.543 1488.27 1000.33 1487.92 1001.19C1487.57 1002.05 1487.38 1002.98 1487.39 1003.91Z" fill="white"/>
</mask>
<g mask="url(#mask7_1_1057)">
<path d="M1501.54 996.795H1487.39V1011.02H1501.54V996.795Z" fill="url(#paint10_linear_1_1057)"/>
</g>
</g>
</g>
<g clip-path="url(#clip3_1_1057)">
<path d="M777.595 1041.8C776.698 1041.8 776 1042.49 776 1043.39C776 1047.77 776.997 1059.23 786.266 1059.23C797.23 1059.23 1352.19 1058.93 1385.68 1058.83C1386.88 1058.83 1388.77 1056.74 1389.87 1055.34C1391.46 1053.45 1393.65 1050.56 1394.95 1044.19C1395.25 1042.79 1394.35 1041.4 1392.96 1041.1C1392.76 1041.1 1392.56 1041 1392.46 1041L777.595 1041.8Z" fill="url(#paint11_linear_1_1057)"/>
<path d="M817.562 1059.13C817.562 1059.13 816.565 1071.08 826.532 1071.08C836.2 1071.08 1323.78 1070.08 1353.19 1069.98C1354.18 1069.98 1355.28 1069.58 1356.08 1068.99C1357.87 1067.59 1360.76 1064.5 1361.86 1058.53L817.562 1059.13Z" fill="url(#paint12_linear_1_1057)"/>
<path d="M1263.58 1069.78H1269.17L1328.37 1432.9L1323.68 1433.2L1263.58 1069.78Z" fill="url(#paint13_linear_1_1057)"/>
<path d="M944.84 1070.58H937.963L865.503 1433.6L871.185 1434L944.84 1070.58Z" fill="url(#paint14_linear_1_1057)"/>
<path d="M987.001 1070.58H980.223L907.763 1407.21L913.444 1407.51L987.001 1070.58Z" fill="url(#paint15_linear_1_1057)"/>
<path d="M1215.84 1069.09H1222.32L1291.09 1405.62L1285.71 1405.91L1215.84 1069.09Z" fill="url(#paint16_linear_1_1057)"/>
</g>
<g clip-path="url(#clip4_1_1057)">
<path d="M1119.93 1051.33L1007.42 1049.12L989.055 971.192L1103.18 969.648L1122 1051.24" fill="url(#paint17_linear_1_1057)"/>
<path d="M1054.3 1020.88C1050.53 1020.96 1047.41 1017.79 1047.33 1013.81C1047.24 1009.83 1050.22 1006.53 1053.99 1006.45C1057.75 1006.37 1060.87 1009.53 1060.96 1013.52C1061.04 1017.5 1058.06 1020.79 1054.3 1020.88Z" fill="white"/>
<path d="M1120.79 1045.51L1182.15 1044.12C1182.33 1044.12 1182.51 1044.17 1182.65 1044.28C1182.79 1044.39 1182.89 1044.54 1182.94 1044.72L1183.84 1048.39C1183.87 1048.5 1183.87 1048.62 1183.85 1048.73C1183.82 1048.85 1183.77 1048.95 1183.7 1049.05C1183.63 1049.14 1183.54 1049.22 1183.43 1049.27C1183.33 1049.32 1183.21 1049.35 1183.1 1049.35L1121.98 1051.24C1121.8 1051.24 1121.63 1051.19 1121.49 1051.08C1121.35 1050.98 1121.24 1050.83 1121.2 1050.66L1120.05 1046.5C1120.02 1046.39 1120.01 1046.27 1120.04 1046.15C1120.06 1046.03 1120.11 1045.92 1120.18 1045.83C1120.25 1045.73 1120.34 1045.65 1120.45 1045.6C1120.56 1045.54 1120.67 1045.52 1120.79 1045.51Z" fill="url(#paint18_linear_1_1057)"/>
<path d="M1105.01 967.461L990.888 969.138C990.807 969.139 990.727 969.159 990.655 969.195C990.582 969.232 990.519 969.284 990.469 969.348L989.048 971.192L1102.73 969.65C1102.85 969.649 1102.97 969.691 1103.07 969.769C1103.17 969.848 1103.24 969.958 1103.26 970.08L1119.82 1050.87C1119.85 1051 1119.92 1051.11 1120.02 1051.19C1120.12 1051.27 1120.25 1051.31 1120.38 1051.3L1121.39 1051.25C1121.46 1051.25 1121.54 1051.23 1121.61 1051.19C1121.68 1051.16 1121.74 1051.11 1121.79 1051.05C1121.83 1050.99 1121.87 1050.92 1121.89 1050.84C1121.9 1050.77 1121.91 1050.69 1121.89 1050.61L1105.97 968.245C1105.93 968.021 1105.81 967.819 1105.64 967.675C1105.46 967.532 1105.24 967.456 1105.01 967.461Z" fill="url(#paint19_linear_1_1057)"/>
</g>
<g clip-path="url(#clip5_1_1057)">
<path d="M1848.5 1304.55C1848.5 1304.55 1856.68 1260.21 1813.51 1236.48C1770.34 1212.75 1768.31 1213.03 1759.78 1210.31C1754.88 1208.64 1749.84 1212.12 1755.51 1219.22C1761.18 1226.32 1757.96 1228.13 1769.29 1231.26C1780.63 1234.39 1782.38 1248.17 1788.04 1251.58C1793.71 1255 1798.68 1255.9 1816.03 1263.35C1831.77 1270.1 1845.21 1289.17 1845.21 1295.92C1845.21 1302.67 1860.6 1304.9 1860.6 1304.9L1848.5 1304.55Z" fill="url(#paint20_linear_1_1057)"/>
<path d="M1846.96 1298.35C1846.96 1298.35 1857.94 1257.57 1820.16 1235.51C1782.38 1213.45 1769.15 1213.72 1761.66 1211.08C1757.4 1209.55 1769.15 1214.84 1774.05 1221.38C1778.95 1227.92 1777.76 1226.46 1786.64 1231.33C1796.93 1236.97 1801.2 1242.47 1807.21 1243.58C1815.96 1245.25 1813.37 1254.3 1828.56 1261.12C1842.27 1267.31 1844.02 1283.88 1844.02 1290.14C1844.02 1296.41 1857.45 1298.49 1857.45 1298.49L1846.96 1298.35Z" fill="url(#paint21_linear_1_1057)"/>
<path d="M1885.02 1292.37L1889.29 1288.33C1891.32 1286.45 1893.84 1285.06 1896.57 1284.37C1909.93 1280.89 1951.91 1267.8 1969.33 1236.2C1969.47 1235.93 1969.33 1235.58 1969.05 1235.44H1968.98C1968.91 1235.44 1968.84 1235.37 1968.77 1235.37C1962.97 1234.95 1933.09 1234.46 1893.14 1268.36C1892.44 1268.91 1891.74 1269.61 1891.18 1270.31C1890.2 1271.7 1888.52 1274.06 1887.75 1275.32C1886.7 1277.13 1888.8 1280.19 1886 1282.9C1883.2 1285.62 1877.18 1292.37 1877.18 1292.37L1882.08 1295.99L1885.02 1292.37Z" fill="url(#paint22_linear_1_1057)"/>
<path d="M1862.28 1289.72C1862.28 1289.72 1873.76 1187.69 1842.48 1155.61C1813.65 1126.1 1813.23 1153.24 1813.3 1157.84C1813.3 1158.25 1813.44 1158.6 1813.58 1158.95C1820.37 1171.55 1822.75 1186.09 1820.3 1200.15C1817.36 1214.91 1838.56 1212.96 1840.38 1227.5C1842.2 1242.05 1849.62 1264.46 1848.85 1274.76C1848.08 1285.06 1848.01 1295.08 1848.01 1295.08L1859.55 1295.43L1862.28 1289.72Z" fill="url(#paint23_linear_1_1057)"/>
<path d="M1862.14 1290.07C1862.21 1289.86 1862.28 1289.59 1862.35 1289.38C1863.05 1282.7 1872.71 1186.58 1842.48 1155.61C1813.86 1126.24 1813.44 1152.83 1813.58 1157.63C1813.65 1158.18 1813.93 1158.74 1814.21 1159.23C1816.31 1162.29 1825.76 1175.65 1834.15 1174.12C1857.31 1170.02 1836.88 1197.72 1849.48 1212.54C1859.55 1224.23 1856.19 1264.6 1855.42 1274.97C1854.93 1280.82 1853.96 1286.52 1852.49 1292.23C1852.21 1293.69 1853.19 1295.08 1854.58 1295.36C1854.65 1295.36 1854.72 1295.36 1854.79 1295.36C1855 1295.36 1855.14 1295.43 1855.35 1295.43H1857.45C1858.71 1295.5 1859.83 1294.87 1860.39 1293.76L1862.14 1290.07Z" fill="url(#paint24_linear_1_1057)"/>
<path d="M1873.41 1295.99C1873.41 1295.99 1875.44 1267.73 1892.02 1250.47C1896.64 1245.74 1902.51 1242.47 1908.95 1241.01C1913.92 1239.89 1922.04 1235.93 1929.1 1222.7C1929.1 1222.7 1942.47 1203.91 1955.83 1198.2C1969.19 1192.5 1955.83 1191.8 1955.83 1191.8C1955.83 1191.8 1917.63 1199.04 1893.14 1221.31C1891.6 1222.7 1889.99 1224.02 1888.24 1225.14C1881.87 1229.45 1864.31 1245.74 1865.08 1293.27L1873.41 1295.99Z" fill="url(#paint25_linear_1_1057)"/>
<path d="M1906.57 1293.69C1906.57 1293.69 1907.13 1290.28 1902.58 1290.35C1898.6 1290.49 1831.15 1290 1831.15 1290C1831.15 1290 1828 1290 1828.21 1292.37C1828.42 1294.74 1838.63 1350.62 1839.61 1351.81C1840.03 1352.5 1840.73 1353.06 1841.57 1353.27C1842.83 1353.61 1890.2 1353.34 1890.2 1353.34C1891.32 1353.2 1892.16 1352.29 1892.23 1351.18C1892.16 1351.25 1906.71 1294.39 1906.57 1293.69Z" fill="url(#paint26_linear_1_1057)"/>
</g>
<g clip-path="url(#clip6_1_1057)">
<path d="M1328.45 1013.82C1327.61 1013.59 1326.77 1013.42 1325.91 1013.28C1325.01 1013.08 1324.08 1013.11 1323.19 1013.37C1322.3 1013.62 1321.5 1014.1 1320.85 1014.75C1319.99 1015.77 1319.43 1017.01 1319.24 1018.33C1318.83 1020.32 1318.95 1022.37 1319.58 1024.3C1320.21 1026.23 1321.33 1027.96 1322.84 1029.33C1324.98 1031.44 1327.34 1033.31 1329.9 1034.89C1330.26 1035.1 1330.57 1035.38 1330.8 1035.73C1331.03 1036.07 1331.18 1036.47 1331.23 1036.88C1332 1039.78 1332.98 1042.61 1334.15 1045.37C1334.22 1045.5 1334.31 1045.62 1334.43 1045.71C1334.54 1045.8 1334.68 1045.86 1334.83 1045.89C1339.96 1047.33 1345.39 1047.38 1350.56 1046.03C1351.75 1045.63 1351.75 1045.63 1352.3 1044.44C1354.36 1038.9 1355.83 1033.17 1356.7 1027.34C1357.52 1022.03 1357.87 1016.66 1357.75 1011.3C1357.75 1010.38 1357.75 1010.25 1356.7 1009.98C1355.1 1009.5 1353.44 1009.24 1351.76 1009.18C1347.42 1008.83 1343.05 1008.74 1338.7 1008.91C1335.92 1008.96 1333.15 1009.27 1330.43 1009.84C1329.76 1009.98 1329.24 1010.24 1328.69 1010.38C1328.43 1010.5 1328.29 1010.64 1328.29 1010.9C1328.42 1011.87 1328.47 1012.84 1328.45 1013.82ZM1330.18 1032.36H1330.05C1325.62 1030.04 1322.64 1026.63 1322.3 1021.33C1322.22 1020.22 1322.34 1019.1 1322.66 1018.03C1322.8 1017.57 1323.06 1017.15 1323.41 1016.82C1323.75 1016.49 1324.18 1016.25 1324.64 1016.13C1325.38 1016.02 1326.13 1016.14 1326.78 1016.49C1327.44 1016.84 1327.96 1017.39 1328.27 1018.07V1019.53C1328.46 1022.77 1328.85 1026 1329.45 1029.19C1329.57 1030.12 1329.86 1031.17 1330.13 1032.33L1330.18 1032.36Z" fill="url(#paint27_linear_1_1057)"/>
<path d="M1328.69 1010.38C1328.69 1010.38 1342.81 1006.08 1357.76 1010.38C1357.76 1010.34 1345.32 1015.35 1328.69 1010.38Z" fill="#E5A4ED"/>
<path d="M1352.35 978C1352.83 980.575 1352.73 983.225 1352.04 985.753C1351.35 988.281 1350.1 990.621 1348.38 992.597C1346.96 994.45 1345.53 996.071 1344.12 997.924C1341.92 1000.77 1340.46 1004.11 1339.86 1007.66C1339.86 1008.12 1339.58 1008.82 1339.58 1009.28C1339.58 1008.35 1339.29 1007.66 1339.29 1006.72C1339.2 1002.51 1340.61 998.408 1343.27 995.14C1344.41 993.603 1345.65 992.132 1346.96 990.735C1349.68 987.458 1351.54 983.555 1352.36 979.381" fill="url(#paint28_linear_1_1057)"/>
<path d="M1333.88 1003.72C1333.84 1003.25 1333.75 1002.78 1333.6 1002.33C1333.45 998.839 1334.67 995.428 1337.01 992.828C1338.29 991.394 1339.43 989.842 1340.42 988.192C1341.67 986.209 1342.54 984.008 1342.97 981.704C1343.03 981.432 1343.21 980.187 1343.21 980.982L1343.26 981.244C1343.4 981.853 1343.5 982.472 1343.54 983.096C1343.51 986.229 1342.4 989.256 1340.39 991.666L1336.99 995.852C1335.78 997.55 1334.89 999.454 1334.36 1001.47C1334.31 1001.72 1334.28 1001.98 1334.28 1002.23C1334.28 1002.76 1334.14 1003.28 1333.87 1003.73L1333.88 1003.72Z" fill="url(#paint29_linear_1_1057)"/>
<path d="M1349.32 1005.79C1349.32 1005.69 1349.09 1004.8 1349.02 1004.01C1348.86 1000.52 1350.09 997.113 1352.42 994.512C1353.7 993.079 1354.85 991.527 1355.83 989.877C1357.09 987.894 1357.95 985.693 1358.39 983.389C1358.45 983.148 1358.75 981.945 1358.65 982.793V983.023C1358.78 983.602 1358.88 984.19 1358.94 984.781C1358.91 987.914 1357.8 990.941 1355.79 993.351L1352.38 997.536C1351.17 999.234 1350.28 1001.14 1349.76 1003.16C1349.7 1003.41 1349.68 1003.66 1349.68 1003.92C1349.66 1004.45 1349.56 1004.98 1349.39 1005.49L1349.32 1005.79Z" fill="url(#paint30_linear_1_1057)"/>
</g>
<g clip-path="url(#clip7_1_1057)">
<path d="M869.345 1002.03L861.002 1048C861.002 1048 871.763 1046.14 876.828 1048L869.345 1002.03Z" fill="url(#paint31_linear_1_1057)"/>
<path d="M869.345 1002.03L876.835 1048C876.835 1048 908.652 1044.1 933.003 1047.68L924.362 1002.2L869.35 1002.03" fill="#FCFCFC"/>
<path d="M900.986 1025.37L893.29 1025.55L892.178 1019.48L899.711 1019.45L900.986 1025.37Z" fill="#58CAEA"/>
<path d="M913.186 1025.02L905.488 1025.19L904.376 1019.13L911.908 1019.09L913.186 1025.02Z" fill="#58CAEA"/>
<path d="M924.686 1025.07L916.991 1025.24L915.877 1019.18L923.411 1019.14L924.686 1025.07Z" fill="#58CAEA"/>
<path d="M926.233 1033.24L918.536 1033.41L917.423 1027.35L924.956 1027.31L926.233 1033.24Z" fill="#58CAEA"/>
<path d="M902.665 1033.17L894.969 1033.34L893.855 1027.28L901.387 1027.24L902.665 1033.17Z" fill="#58CAEA"/>
<path d="M890.756 1033.53L883.061 1033.71L881.947 1027.64L889.481 1027.6L890.756 1033.53Z" fill="#58CAEA"/>
<path d="M892.653 1041.98L884.955 1042.15L883.843 1036.09L891.376 1036.05L892.653 1041.98Z" fill="#58CAEA"/>
<path d="M904.466 1041.81L896.77 1041.98L895.656 1035.91L903.191 1035.88L904.466 1041.81Z" fill="#58CAEA"/>
<path d="M916.635 1041.78L908.94 1041.95L907.828 1035.89L915.36 1035.85L916.635 1041.78Z" fill="#58CAEA"/>
<path d="M914.713 1033.16L907.018 1033.33L905.904 1027.26L913.438 1027.23L914.713 1033.16Z" fill="url(#paint32_linear_1_1057)"/>
<path d="M884.446 999.075L888.646 999L889.117 1004.77L884.968 1004.77L884.446 999.075Z" fill="url(#paint33_linear_1_1057)"/>
<path d="M910.713 999.345L914.343 999.275L914.752 1004.64L911.166 1004.64L910.713 999.345Z" fill="url(#paint34_linear_1_1057)"/>
</g>
<path d="M605 527L605.687 704.98L1101 704.293V528.383L605 527Z" fill="white"/>
<path d="M693.638 582.7V604.609L896.479 603.653V582.7H693.638Z" fill="#BAC6F2"/>
<path d="M693.638 643.645V665.554L896.479 664.598V643.645H693.638Z" fill="#BAC6F2"/>
<path d="M659.355 612.249C667.768 612.249 674.589 605.429 674.589 597.015C674.589 588.602 667.768 581.781 659.355 581.781C650.941 581.781 644.121 588.602 644.121 597.015C644.121 605.429 650.941 612.249 659.355 612.249Z" fill="#BAC6F2"/>
<path d="M659.355 669.147C667.768 669.147 674.589 662.326 674.589 653.913C674.589 645.499 667.768 638.679 659.355 638.679C650.941 638.679 644.121 645.499 644.121 653.913C644.121 662.326 650.941 669.147 659.355 669.147Z" fill="#BAC6F2"/>
<path d="M1072.27 606.669H951.844V665.414H1072.27V606.669Z" fill="#E9EDFA"/>
<path d="M949.969 662.612C949.969 662.612 959.345 642.077 968.266 644.314C977.188 646.551 979.406 655.918 986.118 651.899C992.83 647.879 997.165 631.726 1003.67 629.201C1012.96 625.59 1016.02 629.572 1028.52 636.72C1041.03 643.868 1046.34 642.29 1051.49 637.017C1056.2 632.19 1064.95 619.091 1074.64 613.261" stroke="#BAC6F2" stroke-width="0.698313" stroke-linecap="round" stroke-linejoin="round"/>
<path d="M1212.3 380L1213.59 446.887L1215.16 446.601L1216.55 380H1212.3Z" fill="#BAC5F4"/>
<path d="M1178.39 501.685C1178.39 501.685 1165.94 445.831 1215.19 445.297C1261.78 444.794 1249.83 504.56 1249.83 504.56L1178.39 501.685Z" fill="#BAC5F4"/>
<path d="M1177.96 501.695C1177.96 501.695 1217.58 484.539 1249.95 504.342C1249.95 504.342 1215.88 522.467 1177.96 501.695Z" fill="white"/>
<path d="M1197.13 455.283C1197.13 455.283 1179.85 461.723 1183.37 490.998L1197.13 455.283Z" fill="white"/>
<path d="M1177.94 501.695L1143 627.42L1286 626.018L1249.94 504.342L1177.94 501.695Z" fill="url(#paint35_linear_1_1057)"/>
</g>
<defs>
<linearGradient id="paint0_linear_1_1057" x1="815.918" y1="1414.16" x2="1011.46" y2="1414.16" gradientUnits="userSpaceOnUse">
<stop stop-color="#4B45BD"/>
<stop offset="1" stop-color="#58CAEA"/>
</linearGradient>
<linearGradient id="paint1_linear_1_1057" x1="439.398" y1="974.046" x2="474.677" y2="974.046" gradientUnits="userSpaceOnUse">
<stop stop-color="#F87B58"/>
<stop offset="0.5" stop-color="#F8C548"/>
<stop offset="1" stop-color="#F89C51"/>
</linearGradient>
<linearGradient id="paint2_linear_1_1057" x1="629.429" y1="939.313" x2="647.413" y2="908.958" gradientUnits="userSpaceOnUse">
<stop stop-color="#F87B58"/>
<stop offset="0.5" stop-color="#F8C548"/>
<stop offset="1" stop-color="#F89C51"/>
</linearGradient>
<linearGradient id="paint3_linear_1_1057" x1="486.741" y1="641.627" x2="559.141" y2="641.627" gradientUnits="userSpaceOnUse">
<stop stop-color="#F87B58"/>
<stop offset="0.5" stop-color="#F8C548"/>
<stop offset="1" stop-color="#F89C51"/>
</linearGradient>
<linearGradient id="paint4_linear_1_1057" x1="105.389" y1="636.058" x2="328.916" y2="480.501" gradientUnits="userSpaceOnUse">
<stop stop-color="#E5A4ED"/>
<stop offset="1" stop-color="#7A5BF5"/>
</linearGradient>
<linearGradient id="paint5_linear_1_1057" x1="192.128" y1="371.087" x2="68.5163" y2="371.087" gradientUnits="userSpaceOnUse">
<stop stop-color="#4B45BD"/>
<stop offset="1" stop-color="#58CAEA"/>
</linearGradient>
<linearGradient id="paint6_linear_1_1057" x1="1182.49" y1="340.897" x2="1051.43" y2="340.897" gradientUnits="userSpaceOnUse">
<stop stop-color="#4B45BD"/>
<stop offset="1" stop-color="#58CAEA"/>
</linearGradient>
<linearGradient id="paint7_linear_1_1057" x1="1451.92" y1="808.041" x2="1560.49" y2="808.041" gradientUnits="userSpaceOnUse">
<stop stop-color="#F87B58"/>
<stop offset="0.41" stop-color="#F89453"/>
<stop offset="0.71" stop-color="#F8C548"/>
<stop offset="1" stop-color="#F89C51"/>
</linearGradient>
<linearGradient id="paint8_linear_1_1057" x1="1393.62" y1="1197.55" x2="1600.95" y2="1197.55" gradientUnits="userSpaceOnUse">
<stop stop-color="#4B45BD"/>
<stop offset="1" stop-color="#58CAEA"/>
</linearGradient>
<linearGradient id="paint9_linear_1_1057" x1="1534.64" y1="1033.31" x2="1772.36" y2="868.647" gradientUnits="userSpaceOnUse">
<stop stop-color="#E5A4ED"/>
<stop offset="1" stop-color="#7A5BF5"/>
</linearGradient>
<linearGradient id="paint10_linear_1_1057" x1="1504.13" y1="1003.68" x2="1490.1" y2="1003.68" gradientUnits="userSpaceOnUse">
<stop stop-color="#59C2E9"/>
<stop offset="1" stop-color="#5BD3EF"/>
</linearGradient>
<linearGradient id="paint11_linear_1_1057" x1="775.99" y1="1050.11" x2="1394.97" y2="1050.11" gradientUnits="userSpaceOnUse">
<stop stop-color="#E5A4ED"/>
<stop offset="1" stop-color="#7A5BF5"/>
</linearGradient>
<linearGradient id="paint12_linear_1_1057" x1="817.484" y1="1064.82" x2="1361.73" y2="1064.82" gradientUnits="userSpaceOnUse">
<stop stop-color="#E5A4ED"/>
<stop offset="1" stop-color="#7A5BF5"/>
</linearGradient>
<linearGradient id="paint13_linear_1_1057" x1="1263.55" y1="1251.49" x2="1328.34" y2="1251.49" gradientUnits="userSpaceOnUse">
<stop stop-color="#E5A4ED"/>
<stop offset="1" stop-color="#7A5BF5"/>
</linearGradient>
<linearGradient id="paint14_linear_1_1057" x1="948.005" y1="1252.28" x2="868.955" y2="1252.28" gradientUnits="userSpaceOnUse">
<stop stop-color="#E5A4ED"/>
<stop offset="1" stop-color="#7A5BF5"/>
</linearGradient>
<linearGradient id="paint15_linear_1_1057" x1="990.09" y1="1239.04" x2="911.052" y2="1239.04" gradientUnits="userSpaceOnUse">
<stop stop-color="#E5A4ED"/>
<stop offset="1" stop-color="#7A5BF5"/>
</linearGradient>
<linearGradient id="paint16_linear_1_1057" x1="990.09" y1="1239.04" x2="911.052" y2="1239.04" gradientUnits="userSpaceOnUse">
<stop stop-color="#E5A4ED"/>
<stop offset="1" stop-color="#7A5BF5"/>
</linearGradient>
<linearGradient id="paint17_linear_1_1057" x1="1183" y1="1008.48" x2="989.956" y2="1012.66" gradientUnits="userSpaceOnUse">
<stop stop-color="#E5A4ED"/>
<stop offset="1" stop-color="#7A5BF5"/>
</linearGradient>
<linearGradient id="paint18_linear_1_1057" x1="1183.83" y1="1046.99" x2="1120.07" y2="1048.37" gradientUnits="userSpaceOnUse">
<stop stop-color="#E5A4ED"/>
<stop offset="1" stop-color="#7A5BF5"/>
</linearGradient>
<linearGradient id="paint19_linear_1_1057" x1="1120.99" y1="1008.81" x2="989.931" y2="1011.65" gradientUnits="userSpaceOnUse">
<stop stop-color="#E5A4ED"/>
<stop offset="1" stop-color="#7A5BF5"/>
</linearGradient>
<linearGradient id="paint20_linear_1_1057" x1="1753" y1="1257.33" x2="1860.59" y2="1257.33" gradientUnits="userSpaceOnUse">
<stop stop-color="#93FD93"/>
<stop offset="0.51" stop-color="#21C2C1"/>
<stop offset="1" stop-color="#84F599"/>
</linearGradient>
<linearGradient id="paint21_linear_1_1057" x1="1793.31" y1="1223.6" x2="1854.06" y2="1298.48" gradientUnits="userSpaceOnUse">
<stop stop-color="#93FD93"/>
<stop offset="0.51" stop-color="#21C2C1"/>
<stop offset="1" stop-color="#84F599"/>
</linearGradient>
<linearGradient id="paint22_linear_1_1057" x1="1863.74" y1="1307.93" x2="1947.46" y2="1242.81" gradientUnits="userSpaceOnUse">
<stop stop-color="#93FD93"/>
<stop offset="0.51" stop-color="#21C2C1"/>
<stop offset="1" stop-color="#84F599"/>
</linearGradient>
<linearGradient id="paint23_linear_1_1057" x1="1884.86" y1="1275.04" x2="1813.14" y2="1183.76" gradientUnits="userSpaceOnUse">
<stop stop-color="#93FD93"/>
<stop offset="0.51" stop-color="#21C2C1"/>
<stop offset="1" stop-color="#84F599"/>
</linearGradient>
<linearGradient id="paint24_linear_1_1057" x1="1813.57" y1="1218.71" x2="1864.37" y2="1218.71" gradientUnits="userSpaceOnUse">
<stop stop-color="#93FD93"/>
<stop offset="0.51" stop-color="#21C2C1"/>
<stop offset="1" stop-color="#84F599"/>
</linearGradient>
<linearGradient id="paint25_linear_1_1057" x1="1859.98" y1="1301.25" x2="1914.61" y2="1221.82" gradientUnits="userSpaceOnUse">
<stop stop-color="#93FD93"/>
<stop offset="0.51" stop-color="#21C2C1"/>
<stop offset="1" stop-color="#84F599"/>
</linearGradient>
<linearGradient id="paint26_linear_1_1057" x1="1828.29" y1="1321.72" x2="1906.63" y2="1321.72" gradientUnits="userSpaceOnUse">
<stop stop-color="#E5A4ED"/>
<stop offset="1" stop-color="#7A5BF5"/>
</linearGradient>
<linearGradient id="paint27_linear_1_1057" x1="1364" y1="1019.75" x2="1300.86" y2="1041.74" gradientUnits="userSpaceOnUse">
<stop stop-color="#E5A4ED"/>
<stop offset="1" stop-color="#7A5BF5"/>
</linearGradient>
<linearGradient id="paint28_linear_1_1057" x1="1344.77" y1="996.344" x2="1339.1" y2="1008.88" gradientUnits="userSpaceOnUse">
<stop stop-color="#E5A4ED"/>
<stop offset="1" stop-color="#7A5BF5"/>
</linearGradient>
<linearGradient id="paint29_linear_1_1057" x1="1338.04" y1="993.843" x2="1334.53" y2="1003.41" gradientUnits="userSpaceOnUse">
<stop stop-color="#E5A4ED"/>
<stop offset="1" stop-color="#7A5BF5"/>
</linearGradient>
<linearGradient id="paint30_linear_1_1057" x1="1353.42" y1="995.737" x2="1349.87" y2="1005.43" gradientUnits="userSpaceOnUse">
<stop stop-color="#E5A4ED"/>
<stop offset="1" stop-color="#7A5BF5"/>
</linearGradient>
<linearGradient id="paint31_linear_1_1057" x1="861.002" y1="1025.02" x2="876.828" y2="1025.02" gradientUnits="userSpaceOnUse">
<stop stop-color="#E5A4ED"/>
<stop offset="1" stop-color="#7A5BF5"/>
</linearGradient>
<linearGradient id="paint32_linear_1_1057" x1="905.98" y1="1030.3" x2="914.646" y2="1030.1" gradientUnits="userSpaceOnUse">
<stop stop-color="#E5A4ED"/>
<stop offset="1" stop-color="#7A5BF5"/>
</linearGradient>
<linearGradient id="paint33_linear_1_1057" x1="884.446" y1="1001.89" x2="889.119" y2="1001.89" gradientUnits="userSpaceOnUse">
<stop stop-color="#4D54C2"/>
<stop offset="1" stop-color="#4C4CBF"/>
</linearGradient>
<linearGradient id="paint34_linear_1_1057" x1="884.446" y1="1001.89" x2="889.118" y2="1001.89" gradientUnits="userSpaceOnUse">
<stop stop-color="#4D54C2"/>
<stop offset="1" stop-color="#4C4CBF"/>
</linearGradient>
<linearGradient id="paint35_linear_1_1057" x1="1214.24" y1="433.909" x2="1214.54" y2="652.943" gradientUnits="userSpaceOnUse">
<stop stop-color="white"/>
<stop offset="1" stop-color="white" stop-opacity="0"/>
</linearGradient>
<clipPath id="clip0_1_1057">
<rect width="2209" height="1546" fill="white"/>
</clipPath>
<clipPath id="clip1_1_1057">
<rect width="361" height="839" fill="white" transform="translate(371 563)"/>
</clipPath>
<clipPath id="clip2_1_1057">
<rect width="283" height="633" fill="white" transform="translate(1366 701)"/>
</clipPath>
<clipPath id="clip3_1_1057">
<rect width="619" height="393" fill="white" transform="translate(776 1047)"/>
</clipPath>
<clipPath id="clip4_1_1057">
<rect width="193.111" height="84.9689" fill="white" transform="matrix(-0.999766 0.0216404 0.0216404 0.999766 1182.07 965)"/>
</clipPath>
<clipPath id="clip5_1_1057">
<rect width="217" height="212" fill="white" transform="translate(1753 1142)"/>
</clipPath>
<clipPath id="clip6_1_1057">
<rect width="40" height="69" fill="white" transform="translate(1319 978)"/>
</clipPath>
<clipPath id="clip7_1_1057">
<rect width="72" height="49" fill="white" transform="translate(861 999)"/>
</clipPath>
</defs>
</svg>
