<svg width="221" height="96" viewBox="0 0 221 96" fill="none" xmlns="http://www.w3.org/2000/svg">
<path d="M10.44 35.972C13.056 35.972 15.108 36.512 16.596 37.592C18.108 38.648 18.864 40.304 18.864 42.56C18.864 43.928 18.552 45.116 17.928 46.124C17.304 47.132 16.428 47.924 15.3 48.5C14.196 49.076 12.888 49.4 11.376 49.472L10.872 47.672C12.624 47.72 14.196 48.032 15.588 48.608C16.98 49.184 18.084 49.988 18.9 51.02C19.716 52.052 20.124 53.276 20.124 54.692C20.124 55.988 19.884 57.104 19.404 58.04C18.924 58.952 18.276 59.708 17.46 60.308C16.644 60.884 15.72 61.316 14.688 61.604C13.656 61.868 12.588 62 11.484 62H3.744V35.972H10.44ZM11.16 47.384C12.6 47.384 13.644 46.988 14.292 46.196C14.94 45.38 15.264 44.396 15.264 43.244C15.264 41.876 14.844 40.88 14.004 40.256C13.164 39.632 12.036 39.32 10.62 39.32H7.236V47.384H11.16ZM11.304 58.76C12.264 58.76 13.14 58.616 13.932 58.328C14.748 58.04 15.384 57.596 15.84 56.996C16.32 56.396 16.56 55.64 16.56 54.728C16.56 53.72 16.284 52.928 15.732 52.352C15.204 51.776 14.52 51.368 13.68 51.128C12.84 50.864 11.976 50.732 11.088 50.732H7.236V58.76H11.304ZM26.4299 69.164L36.2579 47.096H39.3539L29.7419 69.164H26.4299ZM30.1019 62.108L22.9379 47.096H26.7179L32.7299 60.416L30.1019 62.108ZM44.399 40.544H47.747V47.168H51.851V49.796H47.747V62H44.399V49.796H41.663V47.168H44.399V40.544ZM62.8085 62.36C61.1045 62.36 59.6405 62.024 58.4165 61.352C57.1925 60.656 56.2445 59.72 55.5725 58.544C54.9245 57.344 54.6005 55.976 54.6005 54.44C54.6005 52.976 54.9725 51.644 55.7165 50.444C56.4605 49.244 57.4565 48.284 58.7045 47.564C59.9525 46.844 61.3445 46.484 62.8805 46.484C64.8485 46.484 66.4805 47.06 67.7765 48.212C69.0725 49.364 69.9485 50.948 70.4045 52.964L58.1285 57.284L57.3365 55.304L67.4165 51.632L66.6965 52.1C66.4085 51.308 65.9285 50.624 65.2565 50.048C64.5845 49.448 63.7085 49.148 62.6285 49.148C61.7165 49.148 60.9005 49.376 60.1805 49.832C59.4605 50.264 58.8965 50.864 58.4885 51.632C58.0805 52.4 57.8765 53.276 57.8765 54.26C57.8765 55.292 58.0925 56.204 58.5245 56.996C58.9565 57.764 59.5445 58.376 60.2885 58.832C61.0565 59.264 61.9205 59.48 62.8805 59.48C63.5285 59.48 64.1525 59.36 64.7525 59.12C65.3765 58.88 65.9525 58.568 66.4805 58.184L68.0285 60.668C67.2845 61.172 66.4445 61.58 65.5085 61.892C64.5965 62.204 63.6965 62.36 62.8085 62.36Z" fill="white"/>
<path d="M145.728 87.656C144.192 88.68 142.101 89.832 139.456 91.112C136.811 92.392 133.696 93.4587 130.112 94.312C126.613 95.1653 122.773 95.592 118.592 95.592C111.424 95.5067 104.939 94.2267 99.136 91.752C93.4187 89.2773 88.5547 85.9067 84.544 81.64C80.5333 77.3733 77.4187 72.4667 75.2 66.92C73.0667 61.288 72 55.3147 72 49C72 42.088 73.1093 35.7307 75.328 29.928C77.632 24.04 80.832 18.9627 84.928 14.696C89.024 10.344 93.8453 6.97333 99.392 4.584C105.024 2.19467 111.168 1 117.824 1C123.371 1 128.405 1.768 132.928 3.30399C137.451 4.75466 141.333 6.50399 144.576 8.55199L139.584 20.072C137.024 18.3653 133.909 16.744 130.24 15.208C126.656 13.672 122.645 12.904 118.208 12.904C113.685 12.904 109.419 13.8 105.408 15.592C101.397 17.384 97.856 19.9013 94.784 23.144C91.712 26.3867 89.28 30.184 87.488 34.536C85.7813 38.8027 84.928 43.4107 84.928 48.36C84.928 53.3947 85.696 58.088 87.232 62.44C88.8533 66.7067 91.1147 70.4187 94.016 73.576C97.0027 76.7333 100.587 79.208 104.768 81C108.949 82.792 113.643 83.688 118.848 83.688C123.541 83.688 127.723 82.9627 131.392 81.512C135.061 80.0613 138.091 78.44 140.48 76.648L145.728 87.656Z" fill="#F2F2F2"/>
<path d="M145.728 86.656C144.192 87.68 142.101 88.832 139.456 90.112C136.811 91.392 133.696 92.4587 130.112 93.312C126.613 94.1653 122.773 94.592 118.592 94.592C111.424 94.5067 104.939 93.2267 99.136 90.752C93.4187 88.2773 88.5547 84.9067 84.544 80.64C80.5333 76.3733 77.4187 71.4667 75.2 65.92C73.0667 60.288 72 54.3147 72 48C72 41.088 73.1093 34.7307 75.328 28.928C77.632 23.04 80.832 17.9627 84.928 13.696C89.024 9.344 93.8453 5.97333 99.392 3.584C105.024 1.19467 111.168 0 117.824 0C123.371 0 128.405 0.768001 132.928 2.30399C137.451 3.75466 141.333 5.50399 144.576 7.55199L139.584 19.072C137.024 17.3653 133.909 15.744 130.24 14.208C126.656 12.672 122.645 11.904 118.208 11.904C113.685 11.904 109.419 12.8 105.408 14.592C101.397 16.384 97.856 18.9013 94.784 22.144C91.712 25.3867 89.28 29.184 87.488 33.536C85.7813 37.8027 84.928 42.4107 84.928 47.36C84.928 52.3947 85.696 57.088 87.232 61.44C88.8533 65.7067 91.1147 69.4187 94.016 72.576C97.0027 75.7333 100.587 78.208 104.768 80C108.949 81.792 113.643 82.688 118.848 82.688C123.541 82.688 127.723 81.9627 131.392 80.512C135.061 79.0613 138.091 77.44 140.48 75.648L145.728 86.656Z" fill="url(#paint0_linear_15_8)"/>
<path d="M148.936 78.064L149.152 80.944L149.032 80.56C149.288 79.952 149.656 79.44 150.136 79.024C150.632 78.592 151.144 78.264 151.672 78.04C152.216 77.8 152.688 77.68 153.088 77.68L152.968 79.888C152.216 79.84 151.552 79.984 150.976 80.32C150.416 80.656 149.968 81.104 149.632 81.664C149.312 82.224 149.152 82.824 149.152 83.464V88H146.944V78.064H148.936ZM160.154 88.24C159.018 88.24 158.042 88.016 157.226 87.568C156.41 87.104 155.778 86.48 155.33 85.696C154.898 84.896 154.682 83.984 154.682 82.96C154.682 81.984 154.93 81.096 155.426 80.296C155.922 79.496 156.586 78.856 157.418 78.376C158.25 77.896 159.178 77.656 160.202 77.656C161.514 77.656 162.602 78.04 163.466 78.808C164.33 79.576 164.914 80.632 165.218 81.976L157.034 84.856L156.506 83.536L163.226 81.088L162.746 81.4C162.554 80.872 162.234 80.416 161.786 80.032C161.338 79.632 160.754 79.432 160.034 79.432C159.426 79.432 158.882 79.584 158.402 79.888C157.922 80.176 157.546 80.576 157.274 81.088C157.002 81.6 156.866 82.184 156.866 82.84C156.866 83.528 157.01 84.136 157.298 84.664C157.586 85.176 157.978 85.584 158.474 85.888C158.986 86.176 159.562 86.32 160.202 86.32C160.634 86.32 161.05 86.24 161.45 86.08C161.866 85.92 162.25 85.712 162.602 85.456L163.634 87.112C163.138 87.448 162.578 87.72 161.954 87.928C161.346 88.136 160.746 88.24 160.154 88.24ZM172.142 88.24C171.214 88.24 170.366 88.04 169.598 87.64C168.846 87.24 168.246 86.656 167.798 85.888C167.366 85.104 167.15 84.152 167.15 83.032C167.15 81.928 167.382 80.976 167.846 80.176C168.31 79.36 168.926 78.736 169.694 78.304C170.478 77.872 171.334 77.656 172.262 77.656C173.19 77.656 173.974 77.872 174.614 78.304C175.254 78.72 175.742 79.216 176.078 79.792L175.934 80.176L176.15 78.064H178.214V88H175.982V85.408L176.222 85.984C176.158 86.144 176.014 86.352 175.79 86.608C175.582 86.848 175.294 87.096 174.926 87.352C174.574 87.608 174.166 87.824 173.702 88C173.238 88.16 172.718 88.24 172.142 88.24ZM172.742 86.392C173.302 86.392 173.806 86.288 174.254 86.08C174.702 85.872 175.07 85.584 175.358 85.216C175.662 84.832 175.87 84.376 175.982 83.848V81.904C175.854 81.424 175.63 81.008 175.31 80.656C174.99 80.288 174.606 80.008 174.158 79.816C173.71 79.608 173.214 79.504 172.67 79.504C172.078 79.504 171.534 79.648 171.038 79.936C170.542 80.224 170.142 80.624 169.838 81.136C169.55 81.648 169.406 82.248 169.406 82.936C169.406 83.576 169.558 84.16 169.862 84.688C170.166 85.216 170.574 85.632 171.086 85.936C171.598 86.24 172.15 86.392 172.742 86.392ZM183.037 73.696H185.269V78.112H188.005V79.864H185.269V88H183.037V79.864H181.213V78.112H183.037V73.696ZM189.838 82.936C189.838 81.944 190.07 81.048 190.534 80.248C191.014 79.448 191.67 78.816 192.502 78.352C193.334 77.888 194.278 77.656 195.334 77.656C196.422 77.656 197.374 77.888 198.19 78.352C199.006 78.816 199.638 79.448 200.086 80.248C200.534 81.048 200.758 81.944 200.758 82.936C200.758 83.928 200.534 84.832 200.086 85.648C199.638 86.448 198.998 87.08 198.166 87.544C197.35 88.008 196.398 88.24 195.31 88.24C194.254 88.24 193.31 88.024 192.478 87.592C191.662 87.144 191.014 86.528 190.534 85.744C190.07 84.944 189.838 84.008 189.838 82.936ZM192.07 82.96C192.07 83.6 192.214 84.184 192.502 84.712C192.79 85.224 193.174 85.632 193.654 85.936C194.15 86.24 194.694 86.392 195.286 86.392C195.91 86.392 196.462 86.24 196.942 85.936C197.438 85.632 197.822 85.224 198.094 84.712C198.366 84.184 198.502 83.6 198.502 82.96C198.502 82.32 198.366 81.744 198.094 81.232C197.822 80.704 197.438 80.288 196.942 79.984C196.462 79.664 195.91 79.504 195.286 79.504C194.678 79.504 194.126 79.664 193.63 79.984C193.15 80.304 192.766 80.728 192.478 81.256C192.206 81.768 192.07 82.336 192.07 82.96ZM205.772 78.064L205.988 80.944L205.868 80.56C206.124 79.952 206.492 79.44 206.972 79.024C207.468 78.592 207.98 78.264 208.508 78.04C209.052 77.8 209.524 77.68 209.924 77.68L209.804 79.888C209.052 79.84 208.388 79.984 207.812 80.32C207.252 80.656 206.804 81.104 206.468 81.664C206.148 82.224 205.988 82.824 205.988 83.464V88H203.78V78.064H205.772ZM215.587 88.192C214.883 88.192 214.195 88.072 213.523 87.832C212.867 87.576 212.323 87.2 211.891 86.704L212.827 85.408C213.243 85.808 213.667 86.112 214.099 86.32C214.547 86.512 214.987 86.608 215.419 86.608C215.739 86.608 216.035 86.568 216.307 86.488C216.579 86.408 216.795 86.28 216.955 86.104C217.131 85.912 217.219 85.656 217.219 85.336C217.219 84.984 217.099 84.704 216.859 84.496C216.635 84.288 216.339 84.12 215.971 83.992C215.619 83.864 215.243 83.744 214.843 83.632C214.027 83.36 213.403 82.984 212.971 82.504C212.539 82.024 212.323 81.44 212.323 80.752C212.323 80.224 212.451 79.736 212.707 79.288C212.979 78.824 213.371 78.448 213.883 78.16C214.411 77.872 215.059 77.728 215.827 77.728C216.515 77.728 217.131 77.816 217.675 77.992C218.219 78.152 218.731 78.424 219.211 78.808L218.323 80.2C218.035 79.896 217.691 79.672 217.291 79.528C216.891 79.384 216.531 79.304 216.211 79.288C215.939 79.272 215.675 79.312 215.419 79.408C215.179 79.504 214.979 79.64 214.819 79.816C214.659 79.992 214.579 80.2 214.579 80.44C214.579 80.776 214.691 81.048 214.915 81.256C215.139 81.464 215.427 81.632 215.779 81.76C216.147 81.872 216.507 81.992 216.859 82.12C217.355 82.264 217.795 82.456 218.179 82.696C218.563 82.936 218.867 83.232 219.091 83.584C219.331 83.936 219.451 84.376 219.451 84.904C219.451 85.496 219.307 86.048 219.019 86.56C218.747 87.056 218.323 87.456 217.747 87.76C217.187 88.048 216.467 88.192 215.587 88.192Z" fill="white"/>
<path d="M147.992 77.368L148.208 80.248L148.088 79.864C148.344 79.256 148.712 78.744 149.192 78.328C149.688 77.896 150.2 77.568 150.728 77.344C151.272 77.104 151.744 76.984 152.144 76.984L152.024 79.192C151.272 79.144 150.608 79.288 150.032 79.624C149.472 79.96 149.024 80.408 148.688 80.968C148.368 81.528 148.208 82.128 148.208 82.768V87.304H146V77.368H147.992ZM159.21 87.544C158.074 87.544 157.098 87.32 156.282 86.872C155.466 86.408 154.834 85.784 154.386 85C153.954 84.2 153.738 83.288 153.738 82.264C153.738 81.288 153.986 80.4 154.482 79.6C154.978 78.8 155.642 78.16 156.474 77.68C157.306 77.2 158.234 76.96 159.258 76.96C160.57 76.96 161.658 77.344 162.522 78.112C163.386 78.88 163.97 79.936 164.274 81.28L156.09 84.16L155.562 82.84L162.282 80.392L161.802 80.704C161.61 80.176 161.29 79.72 160.842 79.336C160.394 78.936 159.81 78.736 159.09 78.736C158.482 78.736 157.938 78.888 157.458 79.192C156.978 79.48 156.602 79.88 156.33 80.392C156.058 80.904 155.922 81.488 155.922 82.144C155.922 82.832 156.066 83.44 156.354 83.968C156.642 84.48 157.034 84.888 157.53 85.192C158.042 85.48 158.618 85.624 159.258 85.624C159.69 85.624 160.106 85.544 160.506 85.384C160.922 85.224 161.306 85.016 161.658 84.76L162.69 86.416C162.194 86.752 161.634 87.024 161.01 87.232C160.402 87.44 159.802 87.544 159.21 87.544ZM171.198 87.544C170.27 87.544 169.422 87.344 168.654 86.944C167.902 86.544 167.302 85.96 166.854 85.192C166.422 84.408 166.206 83.456 166.206 82.336C166.206 81.232 166.438 80.28 166.902 79.48C167.366 78.664 167.982 78.04 168.75 77.608C169.534 77.176 170.39 76.96 171.318 76.96C172.246 76.96 173.03 77.176 173.67 77.608C174.31 78.024 174.798 78.52 175.134 79.096L174.99 79.48L175.206 77.368H177.27V87.304H175.038V84.712L175.278 85.288C175.214 85.448 175.07 85.656 174.846 85.912C174.638 86.152 174.35 86.4 173.982 86.656C173.63 86.912 173.222 87.128 172.758 87.304C172.294 87.464 171.774 87.544 171.198 87.544ZM171.798 85.696C172.358 85.696 172.862 85.592 173.31 85.384C173.758 85.176 174.126 84.888 174.414 84.52C174.718 84.136 174.926 83.68 175.038 83.152V81.208C174.91 80.728 174.686 80.312 174.366 79.96C174.046 79.592 173.662 79.312 173.214 79.12C172.766 78.912 172.27 78.808 171.726 78.808C171.134 78.808 170.59 78.952 170.094 79.24C169.598 79.528 169.198 79.928 168.894 80.44C168.606 80.952 168.462 81.552 168.462 82.24C168.462 82.88 168.614 83.464 168.918 83.992C169.222 84.52 169.63 84.936 170.142 85.24C170.654 85.544 171.206 85.696 171.798 85.696ZM182.093 73H184.325V77.416H187.061V79.168H184.325V87.304H182.093V79.168H180.269V77.416H182.093V73ZM188.894 82.24C188.894 81.248 189.126 80.352 189.59 79.552C190.07 78.752 190.726 78.12 191.558 77.656C192.39 77.192 193.334 76.96 194.39 76.96C195.478 76.96 196.43 77.192 197.246 77.656C198.062 78.12 198.694 78.752 199.142 79.552C199.59 80.352 199.814 81.248 199.814 82.24C199.814 83.232 199.59 84.136 199.142 84.952C198.694 85.752 198.054 86.384 197.222 86.848C196.406 87.312 195.454 87.544 194.366 87.544C193.31 87.544 192.366 87.328 191.534 86.896C190.718 86.448 190.07 85.832 189.59 85.048C189.126 84.248 188.894 83.312 188.894 82.24ZM191.126 82.264C191.126 82.904 191.27 83.488 191.558 84.016C191.846 84.528 192.23 84.936 192.71 85.24C193.206 85.544 193.75 85.696 194.342 85.696C194.966 85.696 195.518 85.544 195.998 85.24C196.494 84.936 196.878 84.528 197.15 84.016C197.422 83.488 197.558 82.904 197.558 82.264C197.558 81.624 197.422 81.048 197.15 80.536C196.878 80.008 196.494 79.592 195.998 79.288C195.518 78.968 194.966 78.808 194.342 78.808C193.734 78.808 193.182 78.968 192.686 79.288C192.206 79.608 191.822 80.032 191.534 80.56C191.262 81.072 191.126 81.64 191.126 82.264ZM204.828 77.368L205.044 80.248L204.924 79.864C205.18 79.256 205.548 78.744 206.028 78.328C206.524 77.896 207.036 77.568 207.564 77.344C208.108 77.104 208.58 76.984 208.98 76.984L208.86 79.192C208.108 79.144 207.444 79.288 206.868 79.624C206.308 79.96 205.86 80.408 205.524 80.968C205.204 81.528 205.044 82.128 205.044 82.768V87.304H202.836V77.368H204.828ZM214.643 87.496C213.939 87.496 213.251 87.376 212.579 87.136C211.923 86.88 211.379 86.504 210.947 86.008L211.883 84.712C212.299 85.112 212.723 85.416 213.155 85.624C213.603 85.816 214.043 85.912 214.475 85.912C214.795 85.912 215.091 85.872 215.363 85.792C215.635 85.712 215.851 85.584 216.011 85.408C216.187 85.216 216.275 84.96 216.275 84.64C216.275 84.288 216.155 84.008 215.915 83.8C215.691 83.592 215.395 83.424 215.027 83.296C214.675 83.168 214.299 83.048 213.899 82.936C213.083 82.664 212.459 82.288 212.027 81.808C211.595 81.328 211.379 80.744 211.379 80.056C211.379 79.528 211.507 79.04 211.763 78.592C212.035 78.128 212.427 77.752 212.939 77.464C213.467 77.176 214.115 77.032 214.883 77.032C215.571 77.032 216.187 77.12 216.731 77.296C217.275 77.456 217.787 77.728 218.267 78.112L217.379 79.504C217.091 79.2 216.747 78.976 216.347 78.832C215.947 78.688 215.587 78.608 215.267 78.592C214.995 78.576 214.731 78.616 214.475 78.712C214.235 78.808 214.035 78.944 213.875 79.12C213.715 79.296 213.635 79.504 213.635 79.744C213.635 80.08 213.747 80.352 213.971 80.56C214.195 80.768 214.483 80.936 214.835 81.064C215.203 81.176 215.563 81.296 215.915 81.424C216.411 81.568 216.851 81.76 217.235 82C217.619 82.24 217.923 82.536 218.147 82.888C218.387 83.24 218.507 83.68 218.507 84.208C218.507 84.8 218.363 85.352 218.075 85.864C217.803 86.36 217.379 86.76 216.803 87.064C216.243 87.352 215.523 87.496 214.643 87.496Z" fill="url(#paint1_linear_15_8)"/>
<path d="M86.476 36.116H90.508L97.564 55.988L96.952 55.736L102.1 42.416L103.72 47.132L96.844 63.188L86.476 36.116ZM98.968 36.116H102.46L110.092 55.7L109.372 55.556L116.104 36.116H119.812L109.588 63.152L98.968 36.116ZM123.705 47.096H127.053V62H123.705V47.096ZM123.453 41.696C123.453 41.168 123.657 40.724 124.065 40.364C124.497 40.004 124.965 39.824 125.469 39.824C125.973 39.824 126.417 40.004 126.801 40.364C127.209 40.724 127.413 41.168 127.413 41.696C127.413 42.248 127.209 42.704 126.801 43.064C126.417 43.4 125.973 43.568 125.469 43.568C124.965 43.568 124.497 43.388 124.065 43.028C123.657 42.668 123.453 42.224 123.453 41.696ZM137.022 62.288C135.966 62.288 134.934 62.108 133.926 61.748C132.942 61.364 132.126 60.8 131.478 60.056L132.882 58.112C133.506 58.712 134.142 59.168 134.79 59.48C135.462 59.768 136.122 59.912 136.77 59.912C137.25 59.912 137.694 59.852 138.102 59.732C138.51 59.612 138.834 59.42 139.074 59.156C139.338 58.868 139.47 58.484 139.47 58.004C139.47 57.476 139.29 57.056 138.93 56.744C138.594 56.432 138.15 56.18 137.598 55.988C137.07 55.796 136.506 55.616 135.906 55.448C134.682 55.04 133.746 54.476 133.098 53.756C132.45 53.036 132.126 52.16 132.126 51.128C132.126 50.336 132.318 49.604 132.702 48.932C133.11 48.236 133.698 47.672 134.466 47.24C135.258 46.808 136.23 46.592 137.382 46.592C138.414 46.592 139.338 46.724 140.154 46.988C140.97 47.228 141.738 47.636 142.458 48.212L141.126 50.3C140.694 49.844 140.178 49.508 139.578 49.292C138.978 49.076 138.438 48.956 137.958 48.932C137.55 48.908 137.154 48.968 136.77 49.112C136.41 49.256 136.11 49.46 135.87 49.724C135.63 49.988 135.51 50.3 135.51 50.66C135.51 51.164 135.678 51.572 136.014 51.884C136.35 52.196 136.782 52.448 137.31 52.64C137.862 52.808 138.402 52.988 138.93 53.18C139.674 53.396 140.334 53.684 140.91 54.044C141.486 54.404 141.942 54.848 142.278 55.376C142.638 55.904 142.818 56.564 142.818 57.356C142.818 58.244 142.602 59.072 142.17 59.84C141.762 60.584 141.126 61.184 140.262 61.64C139.422 62.072 138.342 62.288 137.022 62.288ZM154.418 62.36C152.714 62.36 151.25 62.024 150.026 61.352C148.802 60.656 147.854 59.72 147.182 58.544C146.534 57.344 146.21 55.976 146.21 54.44C146.21 52.976 146.582 51.644 147.326 50.444C148.07 49.244 149.066 48.284 150.314 47.564C151.562 46.844 152.954 46.484 154.49 46.484C156.458 46.484 158.09 47.06 159.386 48.212C160.682 49.364 161.558 50.948 162.014 52.964L149.738 57.284L148.946 55.304L159.026 51.632L158.306 52.1C158.018 51.308 157.538 50.624 156.866 50.048C156.194 49.448 155.318 49.148 154.238 49.148C153.326 49.148 152.51 49.376 151.79 49.832C151.07 50.264 150.506 50.864 150.098 51.632C149.69 52.4 149.486 53.276 149.486 54.26C149.486 55.292 149.702 56.204 150.134 56.996C150.566 57.764 151.154 58.376 151.898 58.832C152.666 59.264 153.53 59.48 154.49 59.48C155.138 59.48 155.762 59.36 156.362 59.12C156.986 58.88 157.562 58.568 158.09 58.184L159.638 60.668C158.894 61.172 158.054 61.58 157.118 61.892C156.206 62.204 155.306 62.36 154.418 62.36Z" fill="white"/>
<defs>
<linearGradient id="paint0_linear_15_8" x1="72.4482" y1="-0.432006" x2="145.448" y2="98.568" gradientUnits="userSpaceOnUse">
<stop stop-color="#6257FF"/>
<stop offset="1" stop-color="#EE49FD"/>
</linearGradient>
<linearGradient id="paint1_linear_15_8" x1="146.056" y1="58.804" x2="218.056" y2="104.804" gradientUnits="userSpaceOnUse">
<stop stop-color="#6257FF"/>
<stop offset="1" stop-color="#EE49FD"/>
</linearGradient>
</defs>
</svg>
