<svg width="221" height="95" viewBox="0 0 221 95" fill="none" xmlns="http://www.w3.org/2000/svg">
<path d="M10.44 33.972C13.056 33.972 15.108 34.512 16.596 35.592C18.108 36.648 18.864 38.304 18.864 40.56C18.864 41.928 18.552 43.116 17.928 44.124C17.304 45.132 16.428 45.924 15.3 46.5C14.196 47.076 12.888 47.4 11.376 47.472L10.872 45.672C12.624 45.72 14.196 46.032 15.588 46.608C16.98 47.184 18.084 47.988 18.9 49.02C19.716 50.052 20.124 51.276 20.124 52.692C20.124 53.988 19.884 55.104 19.404 56.04C18.924 56.952 18.276 57.708 17.46 58.308C16.644 58.884 15.72 59.316 14.688 59.604C13.656 59.868 12.588 60 11.484 60H3.744V33.972H10.44ZM11.16 45.384C12.6 45.384 13.644 44.988 14.292 44.196C14.94 43.38 15.264 42.396 15.264 41.244C15.264 39.876 14.844 38.88 14.004 38.256C13.164 37.632 12.036 37.32 10.62 37.32H7.236V45.384H11.16ZM11.304 56.76C12.264 56.76 13.14 56.616 13.932 56.328C14.748 56.04 15.384 55.596 15.84 54.996C16.32 54.396 16.56 53.64 16.56 52.728C16.56 51.72 16.284 50.928 15.732 50.352C15.204 49.776 14.52 49.368 13.68 49.128C12.84 48.864 11.976 48.732 11.088 48.732H7.236V56.76H11.304ZM26.4299 67.164L36.2579 45.096H39.3539L29.7419 67.164H26.4299ZM30.1019 60.108L22.9379 45.096H26.7179L32.7299 58.416L30.1019 60.108ZM44.399 38.544H47.747V45.168H51.851V47.796H47.747V60H44.399V47.796H41.663V45.168H44.399V38.544ZM62.8085 60.36C61.1045 60.36 59.6405 60.024 58.4165 59.352C57.1925 58.656 56.2445 57.72 55.5725 56.544C54.9245 55.344 54.6005 53.976 54.6005 52.44C54.6005 50.976 54.9725 49.644 55.7165 48.444C56.4605 47.244 57.4565 46.284 58.7045 45.564C59.9525 44.844 61.3445 44.484 62.8805 44.484C64.8485 44.484 66.4805 45.06 67.7765 46.212C69.0725 47.364 69.9485 48.948 70.4045 50.964L58.1285 55.284L57.3365 53.304L67.4165 49.632L66.6965 50.1C66.4085 49.308 65.9285 48.624 65.2565 48.048C64.5845 47.448 63.7085 47.148 62.6285 47.148C61.7165 47.148 60.9005 47.376 60.1805 47.832C59.4605 48.264 58.8965 48.864 58.4885 49.632C58.0805 50.4 57.8765 51.276 57.8765 52.26C57.8765 53.292 58.0925 54.204 58.5245 54.996C58.9565 55.764 59.5445 56.376 60.2885 56.832C61.0565 57.264 61.9205 57.48 62.8805 57.48C63.5285 57.48 64.1525 57.36 64.7525 57.12C65.3765 56.88 65.9525 56.568 66.4805 56.184L68.0285 58.668C67.2845 59.172 66.4445 59.58 65.5085 59.892C64.5965 60.204 63.6965 60.36 62.8085 60.36Z" fill="white"/>
<path d="M145.728 86.656C144.192 87.68 142.101 88.832 139.456 90.112C136.811 91.392 133.696 92.4587 130.112 93.312C126.613 94.1653 122.773 94.592 118.592 94.592C111.424 94.5067 104.939 93.2267 99.136 90.752C93.4187 88.2773 88.5547 84.9067 84.544 80.64C80.5333 76.3733 77.4187 71.4667 75.2 65.92C73.0667 60.288 72 54.3147 72 48C72 41.088 73.1093 34.7307 75.328 28.928C77.632 23.04 80.832 17.9627 84.928 13.696C89.024 9.344 93.8453 5.97333 99.392 3.584C105.024 1.19467 111.168 0 117.824 0C123.371 0 128.405 0.768001 132.928 2.30399C137.451 3.75466 141.333 5.50399 144.576 7.55199L139.584 19.072C137.024 17.3653 133.909 15.744 130.24 14.208C126.656 12.672 122.645 11.904 118.208 11.904C113.685 11.904 109.419 12.8 105.408 14.592C101.397 16.384 97.856 18.9013 94.784 22.144C91.712 25.3867 89.28 29.184 87.488 33.536C85.7813 37.8027 84.928 42.4107 84.928 47.36C84.928 52.3947 85.696 57.088 87.232 61.44C88.8533 65.7067 91.1147 69.4187 94.016 72.576C97.0027 75.7333 100.587 78.208 104.768 80C108.949 81.792 113.643 82.688 118.848 82.688C123.541 82.688 127.723 81.9627 131.392 80.512C135.061 79.0613 138.091 77.44 140.48 75.648L145.728 86.656Z" fill="url(#paint0_linear_15_21)"/>
<path d="M148.936 76.064L149.152 78.944L149.032 78.56C149.288 77.952 149.656 77.44 150.136 77.024C150.632 76.592 151.144 76.264 151.672 76.04C152.216 75.8 152.688 75.68 153.088 75.68L152.968 77.888C152.216 77.84 151.552 77.984 150.976 78.32C150.416 78.656 149.968 79.104 149.632 79.664C149.312 80.224 149.152 80.824 149.152 81.464V86H146.944V76.064H148.936ZM160.154 86.24C159.018 86.24 158.042 86.016 157.226 85.568C156.41 85.104 155.778 84.48 155.33 83.696C154.898 82.896 154.682 81.984 154.682 80.96C154.682 79.984 154.93 79.096 155.426 78.296C155.922 77.496 156.586 76.856 157.418 76.376C158.25 75.896 159.178 75.656 160.202 75.656C161.514 75.656 162.602 76.04 163.466 76.808C164.33 77.576 164.914 78.632 165.218 79.976L157.034 82.856L156.506 81.536L163.226 79.088L162.746 79.4C162.554 78.872 162.234 78.416 161.786 78.032C161.338 77.632 160.754 77.432 160.034 77.432C159.426 77.432 158.882 77.584 158.402 77.888C157.922 78.176 157.546 78.576 157.274 79.088C157.002 79.6 156.866 80.184 156.866 80.84C156.866 81.528 157.01 82.136 157.298 82.664C157.586 83.176 157.978 83.584 158.474 83.888C158.986 84.176 159.562 84.32 160.202 84.32C160.634 84.32 161.05 84.24 161.45 84.08C161.866 83.92 162.25 83.712 162.602 83.456L163.634 85.112C163.138 85.448 162.578 85.72 161.954 85.928C161.346 86.136 160.746 86.24 160.154 86.24ZM172.142 86.24C171.214 86.24 170.366 86.04 169.598 85.64C168.846 85.24 168.246 84.656 167.798 83.888C167.366 83.104 167.15 82.152 167.15 81.032C167.15 79.928 167.382 78.976 167.846 78.176C168.31 77.36 168.926 76.736 169.694 76.304C170.478 75.872 171.334 75.656 172.262 75.656C173.19 75.656 173.974 75.872 174.614 76.304C175.254 76.72 175.742 77.216 176.078 77.792L175.934 78.176L176.15 76.064H178.214V86H175.982V83.408L176.222 83.984C176.158 84.144 176.014 84.352 175.79 84.608C175.582 84.848 175.294 85.096 174.926 85.352C174.574 85.608 174.166 85.824 173.702 86C173.238 86.16 172.718 86.24 172.142 86.24ZM172.742 84.392C173.302 84.392 173.806 84.288 174.254 84.08C174.702 83.872 175.07 83.584 175.358 83.216C175.662 82.832 175.87 82.376 175.982 81.848V79.904C175.854 79.424 175.63 79.008 175.31 78.656C174.99 78.288 174.606 78.008 174.158 77.816C173.71 77.608 173.214 77.504 172.67 77.504C172.078 77.504 171.534 77.648 171.038 77.936C170.542 78.224 170.142 78.624 169.838 79.136C169.55 79.648 169.406 80.248 169.406 80.936C169.406 81.576 169.558 82.16 169.862 82.688C170.166 83.216 170.574 83.632 171.086 83.936C171.598 84.24 172.15 84.392 172.742 84.392ZM183.037 71.696H185.269V76.112H188.005V77.864H185.269V86H183.037V77.864H181.213V76.112H183.037V71.696ZM189.838 80.936C189.838 79.944 190.07 79.048 190.534 78.248C191.014 77.448 191.67 76.816 192.502 76.352C193.334 75.888 194.278 75.656 195.334 75.656C196.422 75.656 197.374 75.888 198.19 76.352C199.006 76.816 199.638 77.448 200.086 78.248C200.534 79.048 200.758 79.944 200.758 80.936C200.758 81.928 200.534 82.832 200.086 83.648C199.638 84.448 198.998 85.08 198.166 85.544C197.35 86.008 196.398 86.24 195.31 86.24C194.254 86.24 193.31 86.024 192.478 85.592C191.662 85.144 191.014 84.528 190.534 83.744C190.07 82.944 189.838 82.008 189.838 80.936ZM192.07 80.96C192.07 81.6 192.214 82.184 192.502 82.712C192.79 83.224 193.174 83.632 193.654 83.936C194.15 84.24 194.694 84.392 195.286 84.392C195.91 84.392 196.462 84.24 196.942 83.936C197.438 83.632 197.822 83.224 198.094 82.712C198.366 82.184 198.502 81.6 198.502 80.96C198.502 80.32 198.366 79.744 198.094 79.232C197.822 78.704 197.438 78.288 196.942 77.984C196.462 77.664 195.91 77.504 195.286 77.504C194.678 77.504 194.126 77.664 193.63 77.984C193.15 78.304 192.766 78.728 192.478 79.256C192.206 79.768 192.07 80.336 192.07 80.96ZM205.772 76.064L205.988 78.944L205.868 78.56C206.124 77.952 206.492 77.44 206.972 77.024C207.468 76.592 207.98 76.264 208.508 76.04C209.052 75.8 209.524 75.68 209.924 75.68L209.804 77.888C209.052 77.84 208.388 77.984 207.812 78.32C207.252 78.656 206.804 79.104 206.468 79.664C206.148 80.224 205.988 80.824 205.988 81.464V86H203.78V76.064H205.772ZM215.587 86.192C214.883 86.192 214.195 86.072 213.523 85.832C212.867 85.576 212.323 85.2 211.891 84.704L212.827 83.408C213.243 83.808 213.667 84.112 214.099 84.32C214.547 84.512 214.987 84.608 215.419 84.608C215.739 84.608 216.035 84.568 216.307 84.488C216.579 84.408 216.795 84.28 216.955 84.104C217.131 83.912 217.219 83.656 217.219 83.336C217.219 82.984 217.099 82.704 216.859 82.496C216.635 82.288 216.339 82.12 215.971 81.992C215.619 81.864 215.243 81.744 214.843 81.632C214.027 81.36 213.403 80.984 212.971 80.504C212.539 80.024 212.323 79.44 212.323 78.752C212.323 78.224 212.451 77.736 212.707 77.288C212.979 76.824 213.371 76.448 213.883 76.16C214.411 75.872 215.059 75.728 215.827 75.728C216.515 75.728 217.131 75.816 217.675 75.992C218.219 76.152 218.731 76.424 219.211 76.808L218.323 78.2C218.035 77.896 217.691 77.672 217.291 77.528C216.891 77.384 216.531 77.304 216.211 77.288C215.939 77.272 215.675 77.312 215.419 77.408C215.179 77.504 214.979 77.64 214.819 77.816C214.659 77.992 214.579 78.2 214.579 78.44C214.579 78.776 214.691 79.048 214.915 79.256C215.139 79.464 215.427 79.632 215.779 79.76C216.147 79.872 216.507 79.992 216.859 80.12C217.355 80.264 217.795 80.456 218.179 80.696C218.563 80.936 218.867 81.232 219.091 81.584C219.331 81.936 219.451 82.376 219.451 82.904C219.451 83.496 219.307 84.048 219.019 84.56C218.747 85.056 218.323 85.456 217.747 85.76C217.187 86.048 216.467 86.192 215.587 86.192Z" fill="white"/>
<path d="M78.476 34.116H82.508L89.564 53.988L88.952 53.736L94.1 40.416L95.72 45.132L88.844 61.188L78.476 34.116ZM90.968 34.116H94.46L102.092 53.7L101.372 53.556L108.104 34.116H111.812L101.588 61.152L90.968 34.116ZM115.705 45.096H119.053V60H115.705V45.096ZM115.453 39.696C115.453 39.168 115.657 38.724 116.065 38.364C116.497 38.004 116.965 37.824 117.469 37.824C117.973 37.824 118.417 38.004 118.801 38.364C119.209 38.724 119.413 39.168 119.413 39.696C119.413 40.248 119.209 40.704 118.801 41.064C118.417 41.4 117.973 41.568 117.469 41.568C116.965 41.568 116.497 41.388 116.065 41.028C115.657 40.668 115.453 40.224 115.453 39.696ZM129.022 60.288C127.966 60.288 126.934 60.108 125.926 59.748C124.942 59.364 124.126 58.8 123.478 58.056L124.882 56.112C125.506 56.712 126.142 57.168 126.79 57.48C127.462 57.768 128.122 57.912 128.77 57.912C129.25 57.912 129.694 57.852 130.102 57.732C130.51 57.612 130.834 57.42 131.074 57.156C131.338 56.868 131.47 56.484 131.47 56.004C131.47 55.476 131.29 55.056 130.93 54.744C130.594 54.432 130.15 54.18 129.598 53.988C129.07 53.796 128.506 53.616 127.906 53.448C126.682 53.04 125.746 52.476 125.098 51.756C124.45 51.036 124.126 50.16 124.126 49.128C124.126 48.336 124.318 47.604 124.702 46.932C125.11 46.236 125.698 45.672 126.466 45.24C127.258 44.808 128.23 44.592 129.382 44.592C130.414 44.592 131.338 44.724 132.154 44.988C132.97 45.228 133.738 45.636 134.458 46.212L133.126 48.3C132.694 47.844 132.178 47.508 131.578 47.292C130.978 47.076 130.438 46.956 129.958 46.932C129.55 46.908 129.154 46.968 128.77 47.112C128.41 47.256 128.11 47.46 127.87 47.724C127.63 47.988 127.51 48.3 127.51 48.66C127.51 49.164 127.678 49.572 128.014 49.884C128.35 50.196 128.782 50.448 129.31 50.64C129.862 50.808 130.402 50.988 130.93 51.18C131.674 51.396 132.334 51.684 132.91 52.044C133.486 52.404 133.942 52.848 134.278 53.376C134.638 53.904 134.818 54.564 134.818 55.356C134.818 56.244 134.602 57.072 134.17 57.84C133.762 58.584 133.126 59.184 132.262 59.64C131.422 60.072 130.342 60.288 129.022 60.288ZM146.418 60.36C144.714 60.36 143.25 60.024 142.026 59.352C140.802 58.656 139.854 57.72 139.182 56.544C138.534 55.344 138.21 53.976 138.21 52.44C138.21 50.976 138.582 49.644 139.326 48.444C140.07 47.244 141.066 46.284 142.314 45.564C143.562 44.844 144.954 44.484 146.49 44.484C148.458 44.484 150.09 45.06 151.386 46.212C152.682 47.364 153.558 48.948 154.014 50.964L141.738 55.284L140.946 53.304L151.026 49.632L150.306 50.1C150.018 49.308 149.538 48.624 148.866 48.048C148.194 47.448 147.318 47.148 146.238 47.148C145.326 47.148 144.51 47.376 143.79 47.832C143.07 48.264 142.506 48.864 142.098 49.632C141.69 50.4 141.486 51.276 141.486 52.26C141.486 53.292 141.702 54.204 142.134 54.996C142.566 55.764 143.154 56.376 143.898 56.832C144.666 57.264 145.53 57.48 146.49 57.48C147.138 57.48 147.762 57.36 148.362 57.12C148.986 56.88 149.562 56.568 150.09 56.184L151.638 58.668C150.894 59.172 150.054 59.58 149.118 59.892C148.206 60.204 147.306 60.36 146.418 60.36Z" fill="white"/>
<defs>
<linearGradient id="paint0_linear_15_21" x1="72.4482" y1="-0.432006" x2="145.448" y2="98.568" gradientUnits="userSpaceOnUse">
<stop stop-color="#6257FF"/>
<stop offset="1" stop-color="#EE49FD"/>
</linearGradient>
</defs>
</svg>
