<svg width="223" height="97" viewBox="0 0 223 97" fill="none" xmlns="http://www.w3.org/2000/svg">
<path d="M10.44 42.972C13.056 42.972 15.108 43.512 16.596 44.592C18.108 45.648 18.864 47.304 18.864 49.56C18.864 50.928 18.552 52.116 17.928 53.124C17.304 54.132 16.428 54.924 15.3 55.5C14.196 56.076 12.888 56.4 11.376 56.472L10.872 54.672C12.624 54.72 14.196 55.032 15.588 55.608C16.98 56.184 18.084 56.988 18.9 58.02C19.716 59.052 20.124 60.276 20.124 61.692C20.124 62.988 19.884 64.104 19.404 65.04C18.924 65.952 18.276 66.708 17.46 67.308C16.644 67.884 15.72 68.316 14.688 68.604C13.656 68.868 12.588 69 11.484 69H3.744V42.972H10.44ZM11.16 54.384C12.6 54.384 13.644 53.988 14.292 53.196C14.94 52.38 15.264 51.396 15.264 50.244C15.264 48.876 14.844 47.88 14.004 47.256C13.164 46.632 12.036 46.32 10.62 46.32H7.236V54.384H11.16ZM11.304 65.76C12.264 65.76 13.14 65.616 13.932 65.328C14.748 65.04 15.384 64.596 15.84 63.996C16.32 63.396 16.56 62.64 16.56 61.728C16.56 60.72 16.284 59.928 15.732 59.352C15.204 58.776 14.52 58.368 13.68 58.128C12.84 57.864 11.976 57.732 11.088 57.732H7.236V65.76H11.304ZM26.4299 76.164L36.2579 54.096H39.3539L29.7419 76.164H26.4299ZM30.1019 69.108L22.9379 54.096H26.7179L32.7299 67.416L30.1019 69.108ZM44.399 47.544H47.747V54.168H51.851V56.796H47.747V69H44.399V56.796H41.663V54.168H44.399V47.544ZM62.8085 69.36C61.1045 69.36 59.6405 69.024 58.4165 68.352C57.1925 67.656 56.2445 66.72 55.5725 65.544C54.9245 64.344 54.6005 62.976 54.6005 61.44C54.6005 59.976 54.9725 58.644 55.7165 57.444C56.4605 56.244 57.4565 55.284 58.7045 54.564C59.9525 53.844 61.3445 53.484 62.8805 53.484C64.8485 53.484 66.4805 54.06 67.7765 55.212C69.0725 56.364 69.9485 57.948 70.4045 59.964L58.1285 64.284L57.3365 62.304L67.4165 58.632L66.6965 59.1C66.4085 58.308 65.9285 57.624 65.2565 57.048C64.5845 56.448 63.7085 56.148 62.6285 56.148C61.7165 56.148 60.9005 56.376 60.1805 56.832C59.4605 57.264 58.8965 57.864 58.4885 58.632C58.0805 59.4 57.8765 60.276 57.8765 61.26C57.8765 62.292 58.0925 63.204 58.5245 63.996C58.9565 64.764 59.5445 65.376 60.2885 65.832C61.0565 66.264 61.9205 66.48 62.8805 66.48C63.5285 66.48 64.1525 66.36 64.7525 66.12C65.3765 65.88 65.9525 65.568 66.4805 65.184L68.0285 67.668C67.2845 68.172 66.4445 68.58 65.5085 68.892C64.5965 69.204 63.6965 69.36 62.8085 69.36Z" fill="white"/>
<path d="M151.992 74.368L152.208 77.248L152.088 76.864C152.344 76.256 152.712 75.744 153.192 75.328C153.688 74.896 154.2 74.568 154.728 74.344C155.272 74.104 155.744 73.984 156.144 73.984L156.024 76.192C155.272 76.144 154.608 76.288 154.032 76.624C153.472 76.96 153.024 77.408 152.688 77.968C152.368 78.528 152.208 79.128 152.208 79.768V84.304H150V74.368H151.992ZM163.21 84.544C162.074 84.544 161.098 84.32 160.282 83.872C159.466 83.408 158.834 82.784 158.386 82C157.954 81.2 157.738 80.288 157.738 79.264C157.738 78.288 157.986 77.4 158.482 76.6C158.978 75.8 159.642 75.16 160.474 74.68C161.306 74.2 162.234 73.96 163.258 73.96C164.57 73.96 165.658 74.344 166.522 75.112C167.386 75.88 167.97 76.936 168.274 78.28L160.09 81.16L159.562 79.84L166.282 77.392L165.802 77.704C165.61 77.176 165.29 76.72 164.842 76.336C164.394 75.936 163.81 75.736 163.09 75.736C162.482 75.736 161.938 75.888 161.458 76.192C160.978 76.48 160.602 76.88 160.33 77.392C160.058 77.904 159.922 78.488 159.922 79.144C159.922 79.832 160.066 80.44 160.354 80.968C160.642 81.48 161.034 81.888 161.53 82.192C162.042 82.48 162.618 82.624 163.258 82.624C163.69 82.624 164.106 82.544 164.506 82.384C164.922 82.224 165.306 82.016 165.658 81.76L166.69 83.416C166.194 83.752 165.634 84.024 165.01 84.232C164.402 84.44 163.802 84.544 163.21 84.544ZM175.198 84.544C174.27 84.544 173.422 84.344 172.654 83.944C171.902 83.544 171.302 82.96 170.854 82.192C170.422 81.408 170.206 80.456 170.206 79.336C170.206 78.232 170.438 77.28 170.902 76.48C171.366 75.664 171.982 75.04 172.75 74.608C173.534 74.176 174.39 73.96 175.318 73.96C176.246 73.96 177.03 74.176 177.67 74.608C178.31 75.024 178.798 75.52 179.134 76.096L178.99 76.48L179.206 74.368H181.27V84.304H179.038V81.712L179.278 82.288C179.214 82.448 179.07 82.656 178.846 82.912C178.638 83.152 178.35 83.4 177.982 83.656C177.63 83.912 177.222 84.128 176.758 84.304C176.294 84.464 175.774 84.544 175.198 84.544ZM175.798 82.696C176.358 82.696 176.862 82.592 177.31 82.384C177.758 82.176 178.126 81.888 178.414 81.52C178.718 81.136 178.926 80.68 179.038 80.152V78.208C178.91 77.728 178.686 77.312 178.366 76.96C178.046 76.592 177.662 76.312 177.214 76.12C176.766 75.912 176.27 75.808 175.726 75.808C175.134 75.808 174.59 75.952 174.094 76.24C173.598 76.528 173.198 76.928 172.894 77.44C172.606 77.952 172.462 78.552 172.462 79.24C172.462 79.88 172.614 80.464 172.918 80.992C173.222 81.52 173.63 81.936 174.142 82.24C174.654 82.544 175.206 82.696 175.798 82.696ZM186.093 70H188.325V74.416H191.061V76.168H188.325V84.304H186.093V76.168H184.269V74.416H186.093V70ZM192.894 79.24C192.894 78.248 193.126 77.352 193.59 76.552C194.07 75.752 194.726 75.12 195.558 74.656C196.39 74.192 197.334 73.96 198.39 73.96C199.478 73.96 200.43 74.192 201.246 74.656C202.062 75.12 202.694 75.752 203.142 76.552C203.59 77.352 203.814 78.248 203.814 79.24C203.814 80.232 203.59 81.136 203.142 81.952C202.694 82.752 202.054 83.384 201.222 83.848C200.406 84.312 199.454 84.544 198.366 84.544C197.31 84.544 196.366 84.328 195.534 83.896C194.718 83.448 194.07 82.832 193.59 82.048C193.126 81.248 192.894 80.312 192.894 79.24ZM195.126 79.264C195.126 79.904 195.27 80.488 195.558 81.016C195.846 81.528 196.23 81.936 196.71 82.24C197.206 82.544 197.75 82.696 198.342 82.696C198.966 82.696 199.518 82.544 199.998 82.24C200.494 81.936 200.878 81.528 201.15 81.016C201.422 80.488 201.558 79.904 201.558 79.264C201.558 78.624 201.422 78.048 201.15 77.536C200.878 77.008 200.494 76.592 199.998 76.288C199.518 75.968 198.966 75.808 198.342 75.808C197.734 75.808 197.182 75.968 196.686 76.288C196.206 76.608 195.822 77.032 195.534 77.56C195.262 78.072 195.126 78.64 195.126 79.264ZM208.828 74.368L209.044 77.248L208.924 76.864C209.18 76.256 209.548 75.744 210.028 75.328C210.524 74.896 211.036 74.568 211.564 74.344C212.108 74.104 212.58 73.984 212.98 73.984L212.86 76.192C212.108 76.144 211.444 76.288 210.868 76.624C210.308 76.96 209.86 77.408 209.524 77.968C209.204 78.528 209.044 79.128 209.044 79.768V84.304H206.836V74.368H208.828ZM218.643 84.496C217.939 84.496 217.251 84.376 216.579 84.136C215.923 83.88 215.379 83.504 214.947 83.008L215.883 81.712C216.299 82.112 216.723 82.416 217.155 82.624C217.603 82.816 218.043 82.912 218.475 82.912C218.795 82.912 219.091 82.872 219.363 82.792C219.635 82.712 219.851 82.584 220.011 82.408C220.187 82.216 220.275 81.96 220.275 81.64C220.275 81.288 220.155 81.008 219.915 80.8C219.691 80.592 219.395 80.424 219.027 80.296C218.675 80.168 218.299 80.048 217.899 79.936C217.083 79.664 216.459 79.288 216.027 78.808C215.595 78.328 215.379 77.744 215.379 77.056C215.379 76.528 215.507 76.04 215.763 75.592C216.035 75.128 216.427 74.752 216.939 74.464C217.467 74.176 218.115 74.032 218.883 74.032C219.571 74.032 220.187 74.12 220.731 74.296C221.275 74.456 221.787 74.728 222.267 75.112L221.379 76.504C221.091 76.2 220.747 75.976 220.347 75.832C219.947 75.688 219.587 75.608 219.267 75.592C218.995 75.576 218.731 75.616 218.475 75.712C218.235 75.808 218.035 75.944 217.875 76.12C217.715 76.296 217.635 76.504 217.635 76.744C217.635 77.08 217.747 77.352 217.971 77.56C218.195 77.768 218.483 77.936 218.835 78.064C219.203 78.176 219.563 78.296 219.915 78.424C220.411 78.568 220.851 78.76 221.235 79C221.619 79.24 221.923 79.536 222.147 79.888C222.387 80.24 222.507 80.68 222.507 81.208C222.507 81.8 222.363 82.352 222.075 82.864C221.803 83.36 221.379 83.76 220.803 84.064C220.243 84.352 219.523 84.496 218.643 84.496Z" fill="url(#paint0_linear_16_3)"/>
<path d="M148.416 87.424C147.392 88.2773 145.472 89.4293 142.656 90.88C139.925 92.3307 136.555 93.6107 132.544 94.72C128.533 95.8293 124.096 96.3413 119.232 96.256C111.808 96.0853 105.152 94.7627 99.264 92.288C93.4613 89.728 88.512 86.272 84.416 81.92C80.4053 77.568 77.3333 72.576 75.2 66.944C73.0667 61.312 72 55.296 72 48.896C72 41.728 73.0667 35.1573 75.2 29.184C77.4187 23.2107 80.5333 18.048 84.544 13.696C88.64 9.344 93.504 5.97333 99.136 3.584C104.768 1.19466 110.997 0 117.824 0C124.139 0 129.728 0.853332 134.592 2.56C139.456 4.26666 143.424 6.10133 146.496 8.06399L139.2 25.6C137.067 23.9787 134.208 22.3147 130.624 20.608C127.125 18.816 123.072 17.92 118.464 17.92C114.88 17.92 111.424 18.688 108.096 20.224C104.853 21.6747 101.952 23.7653 99.392 26.496C96.9173 29.2267 94.9547 32.4267 93.504 36.096C92.0533 39.68 91.328 43.6053 91.328 47.872C91.328 52.3947 91.968 56.5333 93.248 60.288C94.6133 64.0427 96.5333 67.2853 99.008 70.016C101.483 72.6613 104.427 74.7093 107.84 76.16C111.339 77.6107 115.264 78.336 119.616 78.336C124.651 78.336 128.96 77.5253 132.544 75.904C136.128 74.2827 138.859 72.576 140.736 70.784L148.416 87.424Z" fill="url(#paint1_linear_16_3)"/>
<path d="M78.476 43.116H82.508L89.564 62.988L88.952 62.736L94.1 49.416L95.72 54.132L88.844 70.188L78.476 43.116ZM90.968 43.116H94.46L102.092 62.7L101.372 62.556L108.104 43.116H111.812L101.588 70.152L90.968 43.116ZM115.705 54.096H119.053V69H115.705V54.096ZM115.453 48.696C115.453 48.168 115.657 47.724 116.065 47.364C116.497 47.004 116.965 46.824 117.469 46.824C117.973 46.824 118.417 47.004 118.801 47.364C119.209 47.724 119.413 48.168 119.413 48.696C119.413 49.248 119.209 49.704 118.801 50.064C118.417 50.4 117.973 50.568 117.469 50.568C116.965 50.568 116.497 50.388 116.065 50.028C115.657 49.668 115.453 49.224 115.453 48.696ZM129.022 69.288C127.966 69.288 126.934 69.108 125.926 68.748C124.942 68.364 124.126 67.8 123.478 67.056L124.882 65.112C125.506 65.712 126.142 66.168 126.79 66.48C127.462 66.768 128.122 66.912 128.77 66.912C129.25 66.912 129.694 66.852 130.102 66.732C130.51 66.612 130.834 66.42 131.074 66.156C131.338 65.868 131.47 65.484 131.47 65.004C131.47 64.476 131.29 64.056 130.93 63.744C130.594 63.432 130.15 63.18 129.598 62.988C129.07 62.796 128.506 62.616 127.906 62.448C126.682 62.04 125.746 61.476 125.098 60.756C124.45 60.036 124.126 59.16 124.126 58.128C124.126 57.336 124.318 56.604 124.702 55.932C125.11 55.236 125.698 54.672 126.466 54.24C127.258 53.808 128.23 53.592 129.382 53.592C130.414 53.592 131.338 53.724 132.154 53.988C132.97 54.228 133.738 54.636 134.458 55.212L133.126 57.3C132.694 56.844 132.178 56.508 131.578 56.292C130.978 56.076 130.438 55.956 129.958 55.932C129.55 55.908 129.154 55.968 128.77 56.112C128.41 56.256 128.11 56.46 127.87 56.724C127.63 56.988 127.51 57.3 127.51 57.66C127.51 58.164 127.678 58.572 128.014 58.884C128.35 59.196 128.782 59.448 129.31 59.64C129.862 59.808 130.402 59.988 130.93 60.18C131.674 60.396 132.334 60.684 132.91 61.044C133.486 61.404 133.942 61.848 134.278 62.376C134.638 62.904 134.818 63.564 134.818 64.356C134.818 65.244 134.602 66.072 134.17 66.84C133.762 67.584 133.126 68.184 132.262 68.64C131.422 69.072 130.342 69.288 129.022 69.288ZM146.418 69.36C144.714 69.36 143.25 69.024 142.026 68.352C140.802 67.656 139.854 66.72 139.182 65.544C138.534 64.344 138.21 62.976 138.21 61.44C138.21 59.976 138.582 58.644 139.326 57.444C140.07 56.244 141.066 55.284 142.314 54.564C143.562 53.844 144.954 53.484 146.49 53.484C148.458 53.484 150.09 54.06 151.386 55.212C152.682 56.364 153.558 57.948 154.014 59.964L141.738 64.284L140.946 62.304L151.026 58.632L150.306 59.1C150.018 58.308 149.538 57.624 148.866 57.048C148.194 56.448 147.318 56.148 146.238 56.148C145.326 56.148 144.51 56.376 143.79 56.832C143.07 57.264 142.506 57.864 142.098 58.632C141.69 59.4 141.486 60.276 141.486 61.26C141.486 62.292 141.702 63.204 142.134 63.996C142.566 64.764 143.154 65.376 143.898 65.832C144.666 66.264 145.53 66.48 146.49 66.48C147.138 66.48 147.762 66.36 148.362 66.12C148.986 65.88 149.562 65.568 150.09 65.184L151.638 67.668C150.894 68.172 150.054 68.58 149.118 68.892C148.206 69.204 147.306 69.36 146.418 69.36Z" fill="white"/>
<defs>
<linearGradient id="paint0_linear_16_3" x1="150.056" y1="55.804" x2="222.056" y2="101.804" gradientUnits="userSpaceOnUse">
<stop stop-color="#6257FF"/>
<stop offset="1" stop-color="#EE49FD"/>
</linearGradient>
<linearGradient id="paint1_linear_16_3" x1="71.5996" y1="-17.7681" x2="148.6" y2="114.232" gradientUnits="userSpaceOnUse">
<stop stop-color="#6257FF"/>
<stop offset="1" stop-color="#EE49FD"/>
</linearGradient>
</defs>
</svg>
